<?xml version="1.0" standalone="no"?>
<!DOCTYPE svg PUBLIC "-//W3C//DTD SVG 20010904//EN"
 "http://www.w3.org/TR/2001/REC-SVG-20010904/DTD/svg10.dtd">
<svg version="1.0" xmlns="http://www.w3.org/2000/svg"
 width="735.000000pt" height="1065.000000pt" viewBox="0 0 735.000000 1065.000000"
 preserveAspectRatio="xMidYMid meet">

<g transform="translate(0.000000,1065.000000) scale(0.100000,-0.100000)"
fill="#000000" stroke="none">
<path d="M0 5325 l0 -5325 3675 0 3675 0 0 5325 0 5325 -3675 0 -3675 0 0
-5325z m3793 4405 c56 -263 80 -423 71 -453 -4 -12 -14 -33 -23 -47 l-16 -24
-5 34 c-3 19 -1 51 4 70 9 35 -10 160 -73 475 -21 107 -19 113 -65 -170 -21
-131 -41 -222 -53 -242 -17 -31 -17 -34 -1 -65 9 -18 20 -52 23 -74 4 -24 26
-72 50 -110 26 -39 41 -72 36 -77 -5 -5 -31 -6 -59 -2 -46 6 -50 9 -61 44 -6
21 -11 54 -11 74 0 19 -9 60 -21 90 l-21 55 56 218 c30 121 68 269 83 331 15
62 31 109 34 105 3 -4 27 -108 52 -232z m-1251 -187 c-2 -68 -8 -121 -12 -118
-4 3 -11 -39 -14 -93 -4 -53 -12 -144 -17 -201 -13 -132 -8 -154 36 -171 19
-8 35 -17 35 -21 0 -6 -126 -89 -135 -89 -2 0 -2 19 0 43 2 23 7 98 10 167 6
134 29 293 70 485 14 65 25 121 25 124 0 2 1 2 3 0 2 -2 1 -59 -1 -126z m1578
-193 c30 -28 78 -65 107 -83 30 -17 145 -94 256 -169 111 -76 234 -159 274
-185 77 -51 103 -82 31 -36 -39 24 -164 97 -278 161 -25 13 -97 55 -160 92
-63 37 -143 82 -177 99 -35 17 -63 37 -63 44 0 7 -13 26 -30 42 -27 25 -30 27
-30 9 -1 -19 -1 -19 -15 0 -21 28 -19 50 8 62 12 7 22 12 22 13 1 0 25 -22 55
-49z m-710 29 c0 -21 -41 -79 -56 -79 -9 0 -12 5 -9 10 10 16 -8 11 -33 -10
-15 -12 -22 -28 -20 -42 4 -28 0 -30 -413 -291 -56 -36 -28 -7 60 62 81 64
129 115 123 133 -2 7 28 30 202 156 92 66 146 89 146 61z m1316 -106 c11 -73
11 -92 -1 -118 -8 -16 -15 -43 -17 -59 -3 -34 -23 -46 -30 -19 -3 10 1 72 8
138 7 66 13 129 13 139 2 42 15 2 27 -81z m-1796 16 c9 -47 14 -56 29 -52 11
3 21 -2 24 -11 4 -9 2 -16 -3 -16 -4 0 -23 -12 -40 -26 -17 -15 -33 -24 -35
-22 -3 2 -2 49 2 104 3 54 8 94 9 89 2 -6 8 -35 14 -66z m605 -231 c-13 -42
-35 -70 -48 -60 -7 5 -25 14 -42 20 -29 10 -29 10 -5 11 14 1 41 12 60 26 43
30 43 30 35 3z m430 -44 c17 -11 36 -14 56 -10 27 5 30 4 19 -9 -8 -10 -30
-13 -75 -12 -35 1 -62 4 -61 7 2 3 6 13 9 23 8 21 21 22 52 1z m-535 -144 c0
-5 -7 -10 -15 -10 -8 0 -15 5 -15 10 0 6 7 10 15 10 8 0 15 -4 15 -10z m-130
-25 c14 -19 14 -19 -2 -6 -10 7 -18 18 -18 24 0 6 1 8 3 6 1 -2 9 -13 17 -24z
m760 0 c0 -8 -2 -15 -4 -15 -2 0 -6 7 -10 15 -3 8 -1 15 4 15 6 0 10 -7 10
-15z m-690 -15 c0 -5 -5 -10 -11 -10 -5 0 -7 5 -4 10 3 6 8 10 11 10 2 0 4 -4
4 -10z m-83 -22 c-3 -8 -6 -5 -6 6 -1 11 2 17 5 13 3 -3 4 -12 1 -19z m-56
-25 c-8 -15 -10 -15 -11 -2 0 17 10 32 18 25 2 -3 -1 -13 -7 -23z m422 -44 c3
-12 1 -33 -5 -48 -6 -14 -11 -40 -10 -58 0 -23 -3 -30 -13 -27 -8 3 -11 13 -8
21 4 11 2 14 -6 9 -6 -4 -9 -16 -6 -25 3 -11 -3 -28 -15 -42 l-20 -24 10 29
c6 16 9 31 6 33 -2 3 -7 -5 -11 -16 -3 -12 -11 -21 -16 -21 -6 0 -8 8 -5 18 3
9 10 49 17 87 6 39 17 73 23 77 22 15 54 8 59 -13z m473 -8 c138 -32 267 -73
291 -93 8 -7 22 -13 30 -14 29 -5 73 -26 68 -34 -3 -5 5 -6 17 -2 14 3 19 1
14 -6 -5 -8 -1 -10 9 -6 13 6 16 1 13 -22 -2 -21 -8 -28 -20 -26 -9 1 -19 -2
-23 -8 -3 -5 -2 -10 3 -10 5 0 12 -11 14 -25 3 -13 1 -22 -3 -19 -5 3 -9 12
-9 19 0 8 -6 13 -12 11 -7 -1 -10 -1 -6 1 4 2 5 10 2 18 -3 7 -1 23 6 34 6 12
7 21 2 21 -5 0 -15 -11 -22 -25 -10 -18 -17 -22 -24 -15 -8 8 -7 13 3 19 7 5
11 15 9 22 -3 9 -11 4 -23 -15 -10 -15 -14 -31 -9 -34 5 -4 10 -14 12 -22 1
-10 -3 -9 -13 5 -9 11 -13 25 -11 31 2 6 -5 11 -17 10 -12 -1 -33 9 -47 21
-29 27 -34 28 -50 8 -16 -19 -31 -20 -24 -1 3 8 0 17 -7 22 -9 5 -10 2 -6 -10
6 -14 3 -17 -8 -12 -9 3 -13 2 -10 -4 8 -13 -1 -13 -25 0 -12 7 -17 16 -13 27
4 10 2 14 -4 10 -6 -4 -24 3 -40 16 -82 67 -119 72 -143 20 -18 -39 -25 -40
-45 -9 -19 29 -32 126 -17 126 5 0 68 -13 138 -29z m-812 -98 c-26 -32 -49
-60 -51 -63 -2 -2 -8 2 -12 9 -7 11 -14 7 -32 -14 -13 -15 -29 -33 -35 -39 -5
-6 -13 -19 -17 -28 -3 -10 -14 -18 -23 -18 -14 0 -15 2 -3 17 13 15 12 16 -8
11 -34 -9 -28 6 25 66 50 58 67 69 57 36 -7 -23 -2 -25 17 -7 13 13 120 87
125 87 2 0 -18 -26 -43 -57z m1531 27 c3 -5 2 -10 -4 -10 -5 0 -13 5 -16 10
-3 6 -2 10 4 10 5 0 13 -4 16 -10z m-5 -30 c0 -5 -4 -10 -10 -10 -5 0 -10 5
-10 10 0 6 5 10 10 10 6 0 10 -4 10 -10z m76 -5 c10 -8 15 -15 9 -15 -12 0
-17 -50 -5 -50 4 0 13 7 20 15 10 12 10 15 0 15 -8 0 -11 3 -8 6 4 3 16 0 28
-6 18 -9 24 -9 30 0 5 9 9 9 14 1 4 -6 2 -11 -4 -11 -6 0 -9 -4 -6 -9 3 -5 14
-7 25 -4 26 7 180 -101 293 -205 224 -207 321 -315 373 -419 38 -74 44 -106
20 -97 -8 4 -15 18 -16 33 l0 26 -10 -24 c-8 -19 -14 -22 -37 -16 -34 9 -35 9
-36 45 -1 19 -6 30 -16 30 -13 0 -13 1 0 10 11 7 12 10 2 10 -16 0 -148 131
-144 143 1 5 -2 6 -6 3 -8 -5 -100 86 -186 184 l-31 34 33 -23 c17 -12 32 -19
31 -14 -1 17 -226 180 -235 170 -3 -2 7 -12 22 -21 14 -10 24 -20 21 -22 -7
-7 -127 67 -127 78 0 5 -6 6 -12 2 -9 -6 -9 -3 0 9 8 9 11 25 7 37 -7 21 -29
27 -40 10 -4 -6 1 -7 11 -3 12 4 15 3 10 -5 -4 -7 -1 -12 6 -13 7 0 4 -4 -7
-9 -27 -12 -43 -12 -25 0 10 6 11 10 3 10 -7 0 -13 7 -13 15 0 8 -5 15 -10 15
-7 0 -7 6 -2 18 10 19 5 43 -12 54 -7 5 -8 8 0 8 5 0 19 -7 30 -15z m-1866 -8
c0 -23 -42 -132 -53 -139 -8 -5 -6 -8 6 -8 9 0 17 5 17 11 0 19 18 0 22 -25 3
-15 1 -23 -6 -20 -16 6 -33 -8 -40 -31 -3 -11 -4 -3 -1 18 2 22 0 35 -6 32 -5
-4 -9 5 -9 19 0 14 6 26 13 26 9 0 8 3 -2 9 -7 5 -15 29 -18 54 -5 45 -5 46
28 55 47 14 49 14 49 -1z m1814 -2 c-4 -8 -11 -15 -16 -15 -6 0 -5 6 2 15 7 8
14 15 16 15 2 0 1 -7 -2 -15z m23 -17 c-3 -8 -6 -5 -6 6 -1 11 2 17 5 13 3 -3
4 -12 1 -19z m-742 -24 c14 -9 25 -22 25 -29 0 -7 6 -15 14 -18 25 -10 67 -73
60 -92 -6 -16 -8 -16 -16 -1 -5 9 -6 21 -3 26 3 6 1 10 -5 10 -6 0 -8 5 -4 11
4 7 1 10 -6 7 -8 -2 -16 -10 -18 -18 -3 -7 0 -10 5 -7 6 4 11 -4 11 -18 0 -16
-6 -25 -17 -26 -10 0 -11 -2 -3 -6 6 -2 12 -10 12 -16 0 -6 -8 -3 -17 6 -16
16 -16 19 -3 27 13 9 7 14 -12 11 -12 -2 -9 24 5 38 10 11 9 13 -5 8 -10 -4
-19 -3 -19 1 -1 4 -3 17 -4 28 -3 31 -15 46 -31 40 -14 -5 -20 15 -7 27 9 10
10 9 38 -9z m-352 -11 c5 -3 1 -10 -7 -16 -13 -10 -10 -17 19 -49 20 -21 37
-37 38 -35 2 1 20 -13 41 -30 20 -18 33 -33 29 -33 -4 0 3 -7 16 -16 19 -14
25 -14 32 -3 6 10 9 6 9 -14 0 -24 -2 -26 -19 -18 -16 9 -18 7 -18 -14 0 -21
2 -23 19 -14 30 16 32 4 3 -15 -16 -11 -24 -23 -21 -32 3 -9 1 -12 -5 -9 -5 4
-7 15 -4 26 4 11 2 19 -5 19 -6 0 -9 4 -6 9 4 5 -4 7 -16 4 -19 -4 -20 -3 -8
7 12 10 11 11 -8 7 -18 -4 -22 -2 -18 9 3 8 1 14 -4 14 -5 0 -10 6 -13 13 -2
6 -3 5 -2 -4 1 -9 -1 -23 -6 -31 -6 -11 -1 -23 18 -42 16 -16 20 -26 12 -26
-8 0 -24 16 -36 35 -25 38 -29 50 -13 40 5 -3 7 0 4 9 -5 12 -9 12 -35 -2 -28
-17 -38 -32 -20 -32 5 0 12 6 14 13 4 9 8 8 16 -3 6 -8 10 -19 10 -25 0 -5 -3
-4 -6 3 -2 6 -10 9 -16 5 -19 -12 -37 -12 -37 -1 0 6 -7 8 -15 4 -9 -3 -15 0
-15 10 0 8 5 12 10 9 6 -3 10 -2 10 4 0 5 -6 12 -12 14 -10 4 -9 8 2 16 8 6
10 11 4 11 -13 0 -16 63 -8 148 5 51 6 52 32 46 15 -4 31 -9 35 -11z m571 2
c3 -9 20 -22 38 -30 l33 -14 -32 -1 c-23 0 -33 5 -38 20 -3 11 -9 19 -13 19
-16 -3 -23 2 -17 11 9 15 22 12 29 -5z m-64 -16 c0 -6 7 -9 15 -5 13 5 13 2
-1 -19 -20 -30 -24 -31 -17 -5 3 11 0 20 -6 20 -6 0 -11 -6 -11 -12 0 -9 -3
-8 -10 2 -6 9 -5 17 3 22 17 11 27 10 27 -3z m-942 -73 c-8 -36 -7 -55 1 -68
6 -10 11 -22 11 -27 0 -11 -88 -27 -97 -17 -3 3 13 45 36 92 46 92 67 101 49
20z m1475 -14 c135 -65 185 -97 135 -85 -20 4 -18 0 15 -32 34 -33 51 -65 27
-50 -19 12 -10 -28 10 -45 12 -10 17 -21 12 -24 -5 -3 -19 4 -30 15 -13 11
-22 15 -22 8 0 -7 -9 -4 -21 7 -17 14 -23 16 -27 6 -2 -7 -15 -17 -28 -22 -17
-7 -22 -15 -18 -27 5 -14 4 -15 -4 -4 -8 11 -11 11 -18 -2 -9 -15 -84 -29 -84
-15 0 4 -8 5 -17 2 -14 -5 -15 -4 -4 4 12 9 12 13 -2 27 -10 9 -17 26 -17 39
0 22 -17 46 -32 46 -4 0 -13 -19 -20 -42 l-13 -43 -8 50 c-4 28 -10 99 -13
159 l-7 108 24 -7 c13 -3 86 -36 162 -73z m-2443 58 c0 -5 -2 -10 -4 -10 -3 0
-8 5 -11 10 -3 6 -1 10 4 10 6 0 11 -4 11 -10z m528 -77 c-3 -83 -4 -87 -28
-94 -15 -4 -18 -7 -8 -8 11 -1 15 -6 12 -16 -6 -16 -39 -14 -90 5 -23 9 -25 9
-15 -4 9 -11 9 -15 -1 -20 -7 -3 2 -3 20 0 30 4 32 2 32 -25 0 -26 -24 -50
-38 -36 -3 2 3 7 12 11 9 3 16 11 16 16 0 6 -6 8 -13 5 -8 -3 -20 -2 -27 3
-17 10 -49 -18 -43 -39 3 -12 -3 -17 -22 -19 -24 -2 -25 0 -11 14 9 9 14 19
11 24 -3 4 4 10 15 13 11 3 20 10 20 16 0 17 -18 13 -39 -8 -18 -18 -19 -17
-35 33 l-17 51 45 40 c25 23 75 56 111 74 36 19 68 38 71 42 17 28 24 1 22
-78z m1507 57 c3 -5 -1 -10 -10 -10 -9 0 -13 5 -10 10 3 6 8 10 10 10 2 0 7
-4 10 -10z m150 -9 c-3 -6 -11 -11 -16 -11 -5 0 -4 6 3 14 14 16 24 13 13 -3z
m-2259 -43 c-14 -19 -16 -20 -16 -5 0 10 -4 15 -10 12 -5 -3 -10 -1 -10 4 0 6
9 11 20 11 12 0 20 7 21 18 1 16 2 16 6 0 2 -10 -3 -28 -11 -40z m54 31 c0 -5
-4 -9 -8 -9 -5 0 -9 7 -9 15 0 8 4 12 9 9 4 -3 8 -9 8 -15z m750 0 c0 -5 -4
-8 -9 -4 -5 3 -12 1 -16 -5 -4 -6 -11 -8 -16 -4 -5 3 -7 10 -4 15 8 13 45 11
45 -2z m-40 -29 c0 -5 -4 -10 -9 -10 -6 0 -13 5 -16 10 -3 6 1 10 9 10 9 0 16
-4 16 -10z m40 -10 c0 -5 -7 -10 -15 -10 -8 0 -15 5 -15 10 0 6 7 10 15 10 8
0 15 -4 15 -10z m815 -10 c10 -11 16 -20 13 -20 -3 0 -13 9 -23 20 -10 11 -16
20 -13 20 3 0 13 -9 23 -20z m-1656 1 c9 -6 10 -11 2 -15 -6 -4 -11 -12 -11
-18 0 -7 4 -7 13 1 8 6 16 9 19 6 3 -3 11 1 18 10 17 20 29 19 25 -2 -1 -10
-10 -17 -19 -16 -12 1 -15 -4 -12 -14 4 -11 2 -13 -9 -9 -8 3 -15 0 -15 -7 0
-15 -61 -57 -83 -57 -8 0 -19 -5 -23 -12 -5 -8 -2 -9 9 -5 24 9 21 -6 -3 -21
-12 -7 -26 -10 -32 -6 -6 4 -8 3 -4 -4 6 -10 -36 -54 -110 -115 -17 -14 -43
-45 -59 -69 -16 -24 -31 -45 -33 -48 -2 -2 -7 1 -11 8 -5 8 -19 -9 -41 -50
-28 -51 -34 -74 -34 -123 0 -33 3 -73 7 -90 4 -16 4 -25 0 -20 -16 20 -42 36
-72 45 -26 7 -33 5 -41 -11 -9 -15 -7 -19 5 -19 9 0 14 4 11 8 -2 4 4 8 14 9
11 1 22 -3 25 -8 4 -5 11 -7 16 -4 5 4 9 -2 9 -11 0 -16 -1 -16 -18 -1 -21 19
-32 22 -32 7 0 -5 6 -10 14 -10 8 0 17 -7 20 -16 3 -9 12 -14 19 -11 9 3 13
-4 12 -23 0 -17 -4 -26 -12 -23 -7 3 -11 10 -10 15 1 6 -4 13 -12 16 -8 3 -11
0 -7 -7 4 -6 2 -11 -3 -11 -6 0 -11 -9 -11 -20 0 -21 -15 -27 -25 -10 -3 6 -1
10 5 10 6 0 8 5 5 10 -3 6 -2 10 3 10 6 0 13 8 16 17 9 24 -21 46 -44 33 -13
-7 -20 -5 -24 7 -4 9 -9 13 -12 10 -6 -6 16 -48 31 -59 5 -4 6 -10 3 -14 -9
-8 -38 20 -38 36 0 7 -7 9 -16 6 -8 -3 -12 -2 -9 3 8 14 -15 25 -60 28 -47 3
-163 19 -255 36 l-65 11 70 13 c140 25 211 35 260 37 84 4 99 12 146 84 66
101 220 291 282 347 85 78 144 125 156 125 6 0 11 5 11 10 0 12 20 13 39 1z
m2310 -31 c0 -10 -3 -8 -9 5 -12 27 -12 43 0 25 5 -8 9 -22 9 -30z m-315 21
c4 -5 2 -20 -3 -33 -6 -12 -10 -17 -10 -10 -1 6 -8 12 -16 12 -8 0 -15 4 -15
9 0 6 9 8 21 6 17 -4 19 -2 9 10 -8 10 -9 15 -2 15 6 0 13 -4 16 -9z m-1234
-5 c0 -3 -4 -8 -10 -11 -5 -3 -10 -1 -10 4 0 6 5 11 10 11 6 0 10 -2 10 -4z
m656 -89 c15 5 16 4 18 -39 1 -16 -2 -28 -6 -28 -4 0 -8 11 -8 24 0 13 -7 26
-14 29 -10 4 -13 1 -10 -7 3 -9 -3 -13 -20 -13 -14 0 -32 -8 -41 -17 -9 -9
-30 -16 -46 -16 -23 0 -29 -4 -29 -21 0 -11 5 -17 10 -14 6 3 10 2 10 -4 0 -5
-4 -12 -9 -15 -12 -8 -21 18 -21 58 0 30 2 32 33 29 34 -3 106 25 108 42 0 6
3 5 5 -2 3 -7 12 -9 20 -6z m-1050 -34 c-4 -21 -9 -54 -12 -73 -11 -83 -15
-98 -29 -104 -8 -3 -15 -10 -15 -16 0 -6 5 -8 10 -5 6 3 10 1 10 -6 0 -7 -9
-9 -22 -5 -13 3 -27 6 -31 6 -5 0 -5 5 -1 11 4 7 1 10 -7 7 -8 -3 -22 -1 -31
4 -11 5 -18 5 -18 -1 0 -5 7 -12 16 -15 16 -6 11 -26 -7 -26 -6 0 -7 5 -4 10
3 6 1 10 -6 10 -6 0 -9 -8 -6 -20 3 -11 2 -18 -3 -15 -4 3 -8 47 -9 99 -1 89
0 95 21 102 13 4 24 2 26 -4 5 -15 63 16 91 50 13 15 26 28 29 28 2 0 2 -17
-2 -37z m774 -13 c23 -55 -18 -87 -43 -32 -6 15 -17 31 -24 35 -20 12 -5 27
26 27 22 0 31 -7 41 -30z m485 20 c3 -5 2 -10 -4 -10 -5 0 -13 5 -16 10 -3 6
-2 10 4 10 5 0 13 -4 16 -10z m-997 -21 c-19 -12 -25 -11 -25 5 0 8 8 11 20 8
14 -4 16 -7 5 -13z m844 -28 c-4 -11 -7 -10 -13 5 -12 29 -10 36 5 22 7 -7 11
-19 8 -27z m68 7 c0 -12 -6 -9 -26 13 -19 22 -19 22 4 8 12 -8 22 -17 22 -21z
m18 7 c-3 -3 -9 2 -12 12 -6 14 -5 15 5 6 7 -7 10 -15 7 -18z m252 21 c0 -3
-4 -8 -10 -11 -5 -3 -10 -1 -10 4 0 6 5 11 10 11 6 0 10 -2 10 -4z m-1308 -59
c-5 -20 -6 -20 -13 -1 -11 29 -10 34 5 28 8 -3 12 -13 8 -27z m862 21 c-3 -4
-14 -8 -24 -8 -10 0 -22 -4 -25 -10 -3 -5 -1 -10 6 -10 7 0 10 -3 6 -6 -3 -3
-13 -2 -22 4 -16 8 -15 11 5 25 23 16 63 20 54 5z m-344 -13 c0 -8 -4 -15 -10
-15 -5 0 -10 -13 -10 -28 0 -16 -6 -37 -14 -47 -12 -16 -16 -17 -30 -6 -14 12
-16 11 -16 -7 0 -11 6 -23 13 -25 9 -4 9 -6 0 -6 -6 -1 -15 4 -18 9 -11 18
-23 10 -21 -15 0 -14 4 -25 9 -25 4 0 7 -4 7 -10 0 -5 -6 -10 -14 -10 -22 0
-15 61 12 94 12 16 22 33 22 39 0 13 50 67 62 67 4 0 8 -7 8 -15z m490 5 c0
-5 -2 -10 -4 -10 -3 0 -8 5 -11 10 -3 6 -1 10 4 10 6 0 11 -4 11 -10z m1167
-22 c-7 -4 -16 -8 -22 -8 -5 0 -3 5 5 10 13 9 13 10 0 10 -13 0 -13 1 0 10 9
6 17 5 22 -3 4 -6 2 -15 -5 -19z m30 -30 c-3 -8 -6 -5 -6 6 -1 11 2 17 5 13 3
-3 4 -12 1 -19z m-1413 -3 c3 -8 1 -15 -4 -15 -6 0 -10 7 -10 15 0 8 2 15 4
15 2 0 6 -7 10 -15z m60 0 c-4 -8 -10 -12 -15 -9 -14 8 -10 24 6 24 9 0 12 -6
9 -15z m1146 -20 c0 -7 8 -18 17 -24 14 -7 15 -14 7 -32 -11 -23 -11 -23 -21
-4 -17 33 -24 75 -13 75 5 0 10 -7 10 -15z m90 3 c0 -4 -18 -7 -40 -6 -26 1
-36 4 -28 9 16 10 68 8 68 -3z m-2105 -30 c6 -4 2 -8 -7 -8 -10 0 -18 7 -18
17 0 9 3 12 8 7 4 -5 12 -12 17 -16z m2125 18 c0 -2 -8 -10 -17 -17 -16 -13
-17 -12 -4 4 13 16 21 21 21 13z m-63 -38 c-3 -8 -6 -5 -6 6 -1 11 2 17 5 13
3 -3 4 -12 1 -19z m-1662 -58 c3 -5 1 -10 -4 -10 -6 0 -11 5 -11 10 0 6 2 10
4 10 3 0 8 -4 11 -10z m-620 -38 c-4 -4 -10 -1 -12 6 -3 6 -9 10 -14 7 -5 -4
-6 1 -3 9 5 14 8 14 21 0 9 -8 12 -18 8 -22z m25 28 c0 -5 -4 -10 -10 -10 -5
0 -10 5 -10 10 0 6 5 10 10 10 6 0 10 -4 10 -10z m610 -14 c0 -3 -4 -8 -10
-11 -5 -3 -10 -1 -10 4 0 6 5 11 10 11 6 0 10 -2 10 -4z m-595 -24 c-3 -3 -11
0 -18 7 -9 10 -8 11 6 5 10 -3 15 -9 12 -12z m-30 -22 c3 -5 1 -10 -4 -10 -6
0 -11 5 -11 10 0 6 2 10 4 10 3 0 8 -4 11 -10z m-52 -15 c-3 -9 -8 -14 -10
-11 -3 3 -2 9 2 15 9 16 15 13 8 -4z m1543 -46 c41 -25 44 -41 7 -29 -16 5
-48 13 -73 18 -32 7 -37 10 -18 11 15 0 30 6 33 11 9 14 13 13 51 -11z m562
-58 c24 -20 30 -31 21 -36 -8 -6 -10 -4 -4 5 6 9 1 10 -16 5 -17 -4 -20 -3
-10 3 15 11 -3 27 -19 17 -6 -4 -9 -1 -8 7 2 7 -3 12 -10 10 -8 -1 -11 2 -7 8
9 15 16 12 53 -19z m1057 -21 c12 10 16 9 21 -4 3 -9 15 -16 25 -16 11 0 19
-7 19 -16 0 -10 -6 -14 -15 -10 -10 3 -15 -1 -16 -12 -1 -10 -4 -7 -8 8 -9 33
-51 41 -51 11 0 -12 5 -21 11 -21 6 0 9 7 5 15 -3 8 -1 15 3 15 21 0 18 -28
-5 -39 -22 -10 -24 -9 -24 18 0 16 -3 38 -7 48 -6 16 -5 16 10 4 14 -11 20
-11 32 -1z m-2471 -12 c5 -10 7 -10 12 0 9 19 36 15 32 -5 -2 -10 -11 -18 -20
-18 -9 0 -19 -4 -22 -8 -3 -4 -3 -5 1 -2 3 3 12 0 19 -5 9 -8 21 -2 45 20 34
30 49 37 49 21 0 -5 -9 -11 -20 -14 -11 -3 -20 -10 -20 -17 0 -6 5 -8 12 -4 7
5 8 3 4 -5 -5 -7 -14 -10 -22 -7 -8 3 -14 1 -14 -4 0 -6 -6 -10 -13 -10 -8 0
-14 -7 -14 -15 0 -11 7 -14 21 -10 21 6 21 6 2 -9 -21 -17 -42 -21 -49 -8 -2
4 -2 2 -1 -5 2 -6 -27 -20 -66 -32 -38 -12 -77 -24 -87 -28 -16 -6 -16 -4 1
16 11 12 35 31 53 42 45 28 42 38 -9 32 l-43 -4 48 45 c49 46 89 59 101 34z
m1477 -18 c10 -6 19 -18 19 -26 0 -8 4 -12 10 -9 5 3 19 -3 31 -14 12 -11 25
-18 29 -16 12 7 147 -139 169 -183 26 -50 51 -145 50 -187 l-1 -30 -12 35 c-7
20 -15 29 -17 21 -3 -8 -13 8 -23 35 -23 62 -61 129 -98 174 -35 42 -138 148
-167 172 -20 17 -28 38 -15 38 3 0 14 -5 25 -10z m-1341 -4 c0 -3 -4 -8 -10
-11 -5 -3 -10 -1 -10 4 0 6 5 11 10 11 6 0 10 -2 10 -4z m1213 -37 c23 -17 46
-38 51 -46 10 -19 36 -160 41 -220 4 -67 -12 -50 -19 20 -4 34 -11 76 -14 92
-6 28 -7 27 -12 -15 l-5 -45 -29 88 c-27 81 -46 116 -46 86 0 -8 -4 -8 -15 1
-17 14 -21 70 -5 70 6 0 29 -14 53 -31z m-162 -15 c34 -23 39 -32 38 -63 0
-32 -1 -33 -9 -13 -10 23 -30 30 -30 10 0 -6 -21 10 -47 35 -26 26 -56 47 -66
47 -11 0 -15 4 -11 11 11 18 82 3 125 -27z m-821 11 c10 -12 7 -15 -17 -21
-107 -24 -148 -38 -159 -52 -8 -11 -31 -17 -75 -19 l-64 -3 50 21 c28 12 77
29 111 39 33 10 74 25 90 33 37 20 49 21 64 2z m165 1 c11 -11 11 -18 -1 -41
-17 -33 -17 -31 20 -41 18 -4 27 -3 23 3 -4 6 5 15 18 21 24 11 25 10 25 -28
0 -22 -4 -40 -10 -40 -5 0 -10 6 -10 13 -1 6 -7 -3 -15 -21 -23 -52 -43 -68
-67 -53 -16 10 -22 10 -28 1 -5 -8 -14 -2 -29 17 l-22 28 6 -30 c4 -16 10 -32
15 -35 4 -3 2 -10 -5 -17 -22 -21 -31 6 -27 81 l4 68 34 -5 c33 -6 34 -5 28
21 -4 15 -10 34 -15 43 -5 9 -5 19 -2 23 11 11 44 7 58 -8z m246 -21 l64 -26
-60 7 c-33 3 -79 6 -103 6 -41 0 -42 1 -26 19 23 25 49 24 125 -6z m1715 7
c16 -10 12 -81 -3 -75 -7 3 -13 9 -13 15 0 5 -4 6 -10 3 -5 -3 -10 -2 -10 3 0
5 10 13 23 17 13 4 17 8 9 12 -6 2 -9 10 -5 16 4 7 0 8 -11 4 -10 -4 -20 -7
-22 -7 -2 0 -4 -6 -4 -14 0 -8 -4 -18 -10 -21 -5 -3 -10 3 -10 15 0 12 9 24
23 30 28 11 30 11 43 2z m-3896 -34 c0 -4 -4 -8 -9 -8 -6 0 -12 4 -15 8 -3 5
1 9 9 9 8 0 15 -4 15 -9z m104 -38 c-6 -6 -10 -3 -10 10 0 13 4 16 10 10 7 -7
7 -13 0 -20z m809 4 c3 -4 -7 -20 -23 -36 -17 -16 -30 -36 -30 -43 0 -7 -14
-27 -31 -44 -17 -17 -28 -31 -25 -31 4 0 -7 -27 -23 -59 -47 -92 -67 -271 -39
-348 14 -38 8 -49 -19 -32 -32 19 -65 92 -57 123 6 26 7 26 25 10 18 -17 19
-14 19 84 0 86 4 110 24 157 14 30 30 55 37 55 7 0 9 3 6 7 -10 9 13 44 80
121 36 42 44 47 56 36z m1571 -31 c50 -20 74 -36 87 -58 24 -39 24 -53 0 -31
-11 10 -54 40 -97 67 -43 27 -74 49 -69 49 5 0 41 -12 79 -27z m-1102 -23
c-34 -22 -62 -44 -62 -50 0 -12 -53 -40 -77 -40 -16 0 -16 2 2 19 29 27 167
111 184 111 8 0 -14 -18 -47 -40z m-1268 19 c3 -3 -4 -5 -14 -6 -11 -1 -22 2
-24 6 -5 8 30 8 38 0z m3723 5 c-3 -3 -12 -4 -19 -1 -8 3 -5 6 6 6 11 1 17 -2
13 -5z m13 -40 c0 -2 -7 -4 -15 -4 -8 0 -15 4 -15 10 0 5 7 7 15 4 8 -4 15 -8
15 -10z m-1160 -6 c0 -9 4 -8 10 2 11 17 13 10 4 -14 -9 -23 -33 -20 -31 4 1
22 17 28 17 8z m-1645 -74 c-15 -32 -36 -93 -47 -136 -12 -43 -23 -76 -25 -74
-2 2 1 53 8 112 11 104 26 144 41 106 5 -13 11 -7 24 27 10 24 20 39 22 33 2
-6 -9 -36 -23 -68z m1015 42 c0 -34 -15 -57 -22 -35 -2 6 -16 1 -33 -13 l-30
-23 28 35 c15 19 30 43 34 53 9 29 23 19 23 -17z m600 24 c0 -5 -4 -10 -10
-10 -5 0 -10 5 -10 10 0 6 5 10 10 10 6 0 10 -4 10 -10z m1143 -10 c3 -11 1
-20 -4 -20 -5 0 -9 2 -9 4 0 2 -3 11 -6 20 -3 9 -2 16 4 16 5 0 12 -9 15 -20z
m-577 -45 c34 -74 47 -165 33 -235 -19 -95 -25 -84 -25 47 0 109 -3 136 -22
183 -25 61 -24 60 -16 60 3 0 16 -25 30 -55z m-3066 21 c0 -3 -4 -8 -10 -11
-5 -3 -10 -1 -10 4 0 6 5 11 10 11 6 0 10 -2 10 -4z m2214 -11 c8 -8 19 -15
25 -15 13 0 83 -41 78 -46 -2 -3 -20 3 -40 11 -47 20 -145 19 -193 -1 -34 -14
-37 -14 -25 0 7 8 22 18 33 22 15 5 17 8 8 14 -9 5 2 12 31 18 62 14 66 14 83
-3z m328 -19 c4 -39 -7 -40 -14 -1 -4 21 -1 35 8 35 1 0 4 -15 6 -34z m-782
14 c0 -5 -4 -10 -10 -10 -5 0 -10 5 -10 10 0 6 5 10 10 10 6 0 10 -4 10 -10z
m1840 6 c0 -3 -4 -8 -10 -11 -5 -3 -10 -1 -10 4 0 6 5 11 10 11 6 0 10 -2 10
-4z m-2830 -214 c-5 -31 -17 -62 -25 -68 -8 -6 -15 -20 -15 -32 0 -21 -45 -82
-61 -82 -13 0 -11 54 2 67 7 7 18 56 25 109 11 79 20 107 46 148 l33 51 3 -68
c2 -37 -2 -93 -8 -125z m2040 158 c0 -5 -4 -10 -10 -10 -14 0 -12 -27 3 -33 7
-3 5 -6 -5 -6 -13 -1 -18 7 -18 29 0 20 5 30 15 30 8 0 15 -4 15 -10z m-1394
-20 c18 -12 36 -30 39 -41 4 -10 18 -32 31 -49 24 -27 25 -50 4 -50 -5 0 -18
20 -29 45 -11 25 -27 45 -35 45 -8 0 -24 13 -36 29 -11 16 -30 32 -43 34 -18
3 -16 5 7 6 16 0 44 -8 62 -19z m729 -11 c-22 -11 -54 -34 -72 -51 -18 -17
-36 -28 -40 -24 -5 4 8 22 27 38 l35 30 -30 -7 c-22 -5 -27 -4 -19 5 6 6 33
15 60 19 76 13 82 12 39 -10z m-360 -49 c5 -38 3 -56 -9 -75 -9 -13 -16 -32
-16 -42 -1 -12 -8 -6 -20 17 -22 40 -26 65 -8 54 8 -5 9 -1 5 14 -4 12 -10 32
-13 43 -6 19 -5 20 15 10 19 -11 21 -9 21 14 0 43 18 18 25 -35z m785 50 c0
-5 -2 -10 -4 -10 -3 0 -8 5 -11 10 -3 6 -1 10 4 10 6 0 11 -4 11 -10z m-79
-73 c19 -67 4 -89 -27 -41 -14 21 -15 27 -4 34 10 6 9 12 -4 31 -9 13 -16 29
-16 36 0 22 41 -27 51 -60z m-1334 13 c-36 -22 -69 -40 -72 -40 -16 0 11 23
58 50 78 45 91 36 14 -10z m717 -19 c-11 -9 -25 -28 -32 -43 -6 -16 -16 -28
-22 -28 -15 0 -12 11 10 45 11 17 20 38 20 48 0 15 3 16 22 6 21 -11 21 -12 2
-28z m940 31 c12 -20 17 -122 6 -122 -6 0 -4 -7 5 -16 10 -11 14 -26 11 -39
-3 -12 2 -37 11 -55 9 -19 22 -83 28 -144 7 -61 27 -194 44 -295 31 -177 32
-193 30 -453 l-1 -269 -24 16 c-14 9 -24 11 -24 5 0 -6 -5 -8 -11 -4 -7 4 -7
9 -2 13 12 7 13 41 1 41 -4 0 -8 9 -8 20 0 28 30 25 31 -2 1 -13 2 -30 3 -40
1 -9 5 -20 9 -24 4 -5 5 -1 1 9 -4 10 -1 17 6 17 10 0 10 3 1 14 -6 8 -11 18
-10 22 5 19 -13 42 -28 37 -12 -5 -14 -1 -9 18 3 13 3 18 0 12 -8 -17 -29 -16
-44 2 -7 8 -18 15 -24 15 -6 0 -4 -4 4 -10 8 -5 11 -12 7 -17 -5 -4 -12 -1
-17 7 -15 23 -12 30 10 30 21 0 28 16 9 22 -15 5 -3 78 12 78 6 0 7 5 2 13 -4
6 -8 30 -9 52 0 22 -4 56 -8 75 -5 26 -4 31 3 20 6 -8 11 -23 11 -32 0 -9 5
-29 11 -45 10 -26 12 -26 19 -8 4 11 6 25 4 30 -1 6 -5 55 -9 110 -4 70 -14
122 -32 174 -24 69 -25 80 -18 185 14 202 15 270 3 283 -6 7 -12 28 -14 46 -2
17 -6 56 -9 85 -6 45 -4 52 11 52 16 0 16 1 0 19 -14 15 -14 20 -4 25 10 5 10
7 1 12 -7 3 -13 10 -13 15 0 11 17 12 24 1z m-1198 -69 c-11 -11 -19 6 -11 24
8 17 8 17 12 0 3 -10 2 -21 -1 -24z m9 -43 c3 -5 2 -10 -4 -10 -5 0 -13 5 -16
10 -3 6 -2 10 4 10 5 0 13 -4 16 -10z m1317 -37 c9 -21 28 -101 42 -178 39
-211 41 -229 28 -221 -7 4 -12 13 -12 19 0 7 -11 29 -25 49 -18 26 -25 50 -25
83 0 28 -4 44 -10 40 -6 -4 -10 13 -10 44 0 27 -3 58 -6 68 -5 15 -4 15 5 3
16 -23 14 14 -4 74 -8 27 -15 53 -15 58 0 18 17 -2 32 -39z m-371 3 c-7 -16
-18 -26 -31 -26 -26 0 -25 6 7 36 31 29 37 26 24 -10z m-566 -31 c16 -23 51
-59 77 -80 58 -49 62 -64 8 -34 -25 14 -52 43 -76 82 l-37 59 -41 -5 c-38 -5
-39 -4 -21 9 30 22 56 13 90 -31z m-475 11 c0 -18 -23 -33 -27 -19 -6 17 -43
2 -43 -17 0 -13 -19 -26 -65 -44 -75 -30 -111 -35 -49 -7 42 19 65 41 43 41
-8 0 -7 5 2 17 13 15 11 16 -16 9 -22 -5 -27 -4 -19 4 6 6 42 13 79 16 38 2
71 6 73 9 10 10 22 5 22 -9z m280 -48 c0 -10 5 -18 10 -18 6 0 10 6 10 13 0 8
8 21 18 30 16 15 20 15 45 -7 15 -13 27 -30 27 -37 0 -8 8 -26 17 -39 10 -14
18 -38 19 -55 l2 -30 -19 24 c-10 13 -19 32 -19 43 0 11 -5 16 -10 13 -6 -4
-17 -2 -24 4 -10 8 -17 7 -26 -4 -11 -13 -10 -14 6 -8 17 6 18 5 4 -12 -10
-13 -11 -16 -2 -11 10 6 13 2 10 -15 -4 -32 -28 -37 -28 -6 0 20 -10 31 -42
49 -44 24 -84 87 -74 114 8 20 76 -24 76 -48z m815 3 c-9 -41 -30 -61 -63 -61
l-27 1 24 19 c17 15 19 20 8 20 -19 0 -77 -49 -59 -50 32 0 -3 -20 -36 -20
l-37 0 30 19 c17 10 39 28 49 40 11 12 31 21 47 21 19 0 34 8 45 25 21 32 28
26 19 -14z m-368 14 c9 -25 -3 -29 -52 -15 -32 9 -42 16 -33 21 23 15 78 10
85 -6z m-557 -5 c0 -7 -14 -8 -37 -4 -52 9 -54 14 -5 14 23 0 42 -5 42 -10z
m720 -12 c0 -10 -86 -21 -99 -13 -25 15 -8 23 44 22 30 -1 55 -5 55 -9z
m-1643 -80 c-8 -104 -15 -128 -33 -121 -8 3 -14 0 -14 -6 0 -6 7 -11 15 -11
12 0 13 -4 5 -19 -7 -14 -6 -21 3 -25 6 -3 -1 -4 -17 0 -18 3 -32 0 -37 -8 -6
-9 -9 -4 -9 15 0 15 -4 27 -9 27 -17 0 -19 26 -4 63 8 20 19 34 24 31 5 -3 9
0 9 7 0 6 8 19 18 28 10 9 24 35 30 59 7 23 16 42 19 42 3 0 3 -37 0 -82z
m886 71 c-7 -7 -9 -25 -6 -40 3 -18 1 -29 -5 -29 -6 0 -9 -6 -6 -13 7 -20 -41
-68 -54 -55 -8 8 -13 7 -18 -5 -3 -9 -14 -17 -23 -18 -10 0 -12 -2 -3 -6 7 -3
20 1 29 9 14 11 16 11 11 -2 -5 -17 -78 -61 -93 -57 -5 2 -17 -4 -27 -13 -9
-8 -34 -22 -55 -29 -44 -16 -75 -40 -67 -53 3 -5 15 -6 27 -3 19 5 19 4 -3 -9
-29 -17 -44 -20 -35 -7 3 5 1 12 -3 15 -5 3 -9 -6 -8 -21 0 -14 -5 -28 -12
-31 -9 -3 -11 3 -6 22 5 22 3 26 -16 26 -19 0 -21 -4 -16 -25 7 -27 -11 -36
-20 -10 -4 8 -11 12 -18 9 -6 -3 0 4 13 15 13 12 32 21 43 21 10 0 17 4 14 9
-9 14 72 91 95 91 35 0 132 58 162 97 25 34 27 35 28 12 0 -13 3 -18 6 -11 2
6 9 9 15 6 14 -9 27 14 20 38 -3 11 -10 17 -18 14 -8 -3 -14 1 -14 10 0 10 6
14 15 10 9 -3 18 1 22 10 7 19 -6 32 -16 15 -7 -10 -10 -9 -14 3 -5 13 1 16
30 16 28 0 34 -3 26 -11z m822 -1 c-9 -24 -71 -58 -103 -58 -42 0 -42 20 1 21
17 0 48 11 67 24 42 29 41 28 35 13z m-1349 -25 c-7 -7 -65 7 -71 17 -3 4 13
3 35 -2 23 -6 39 -13 36 -15z m1010 -11 c-5 -4 -66 26 -66 33 0 3 16 -3 35
-12 19 -9 33 -18 31 -21z m-1094 1 c32 -10 58 -24 58 -30 0 -15 -16 -17 -24
-4 -3 4 -26 14 -51 21 -24 7 -50 19 -57 28 -11 13 -10 14 2 9 8 -3 41 -14 72
-24z m218 17 c-8 -5 -22 -10 -30 -10 -13 0 -13 1 0 10 8 5 22 10 30 10 13 0
13 -1 0 -10z m90 -55 c0 -7 -81 -27 -87 -21 -3 3 10 9 28 15 39 11 59 13 59 6z
m260 -5 c0 -5 -2 -10 -4 -10 -3 0 -8 5 -11 10 -3 6 -1 10 4 10 6 0 11 -4 11
-10z m-725 -34 l31 -34 -22 -40 c-14 -25 -19 -43 -13 -49 6 -6 4 -22 -5 -44
-13 -29 -21 -32 -18 -8 1 4 -8 5 -18 2 -19 -5 -20 -1 -15 48 12 123 17 159 23
159 3 0 20 -15 37 -34z m1097 -8 c-18 -18 -16 -44 2 -29 10 8 16 8 25 -3 9
-11 8 -15 -4 -20 -11 -4 -14 -2 -9 6 5 8 2 9 -10 5 -21 -8 -33 18 -16 38 10
12 9 16 -4 21 -9 3 -13 11 -10 16 4 6 13 4 22 -6 13 -12 14 -18 4 -28z m-745
26 c-3 -3 -12 -4 -19 -1 -8 3 -5 6 6 6 11 1 17 -2 13 -5z m68 -25 c-4 -13 -2
-25 5 -29 8 -5 -1 -15 -27 -31 -21 -12 -45 -31 -54 -41 -9 -10 -22 -18 -28
-18 -7 0 -9 -4 -6 -10 3 -5 -3 -10 -15 -10 -11 0 -23 -7 -26 -15 -4 -8 -10
-12 -15 -9 -5 3 -7 10 -4 15 4 5 1 9 -4 9 -6 0 -11 -8 -12 -17 0 -11 -3 -13
-6 -5 -6 15 -33 16 -33 1 0 -5 4 -8 8 -5 5 3 9 -2 9 -11 0 -9 -8 -18 -18 -20
-11 -3 -15 -11 -11 -21 5 -14 4 -15 -10 -2 -18 17 -14 30 9 30 10 0 13 6 9 16
-3 9 -6 20 -6 25 0 6 -4 7 -10 4 -18 -11 -11 11 9 29 18 17 20 17 29 -1 6 -10
14 -15 18 -10 4 4 -1 16 -11 27 -18 20 -18 21 2 39 14 14 35 19 73 19 44 1 59
6 89 31 44 36 44 36 36 10z m1267 4 c-11 -22 9 -115 23 -112 6 1 13 -14 16
-35 7 -40 -7 -50 -17 -11 -4 18 -13 25 -29 25 -13 0 -26 4 -29 9 -7 10 -53 20
-60 13 -3 -2 -1 -13 5 -23 12 -24 -12 -27 -31 -4 -7 8 -9 15 -5 15 3 0 -3 12
-14 26 -12 15 -21 30 -21 35 0 8 33 25 125 65 40 18 47 17 37 -3z m-1562 -38
c0 -3 -12 -17 -27 -30 -16 -13 -24 -27 -19 -32 5 -4 11 -2 13 5 4 11 33 18 33
7 0 -18 -38 -71 -48 -67 -7 2 -12 -6 -12 -22 0 -13 -4 -28 -10 -31 -6 -4 -10
7 -10 26 0 18 -3 29 -7 25 -4 -4 -7 -23 -6 -44 0 -20 -1 -27 -4 -14 -5 24 -13
28 -30 11 -7 -7 -7 1 1 25 6 20 16 36 23 36 7 0 18 18 24 41 8 25 22 45 38 54
28 15 41 18 41 10z m855 -15 c-3 -5 -11 -10 -16 -10 -6 0 -7 5 -4 10 3 6 11
10 16 10 6 0 7 -4 4 -10z m473 -26 c29 -4 36 -13 63 -70 31 -65 36 -114 6 -59
-29 53 -61 81 -117 104 -93 39 -81 45 48 25z m-648 -12 c0 -11 -13 -43 -30
-73 -18 -33 -27 -62 -24 -74 6 -18 5 -19 -10 -5 -15 15 -14 20 5 70 32 82 42
100 51 100 4 0 8 -8 8 -18z m470 -32 c8 -5 11 -10 7 -10 -5 0 -1 -7 7 -16 9
-8 20 -12 26 -9 5 3 10 1 10 -4 0 -6 10 -11 23 -11 21 -1 21 -1 3 -12 -15 -8
-21 -8 -24 0 -2 7 -12 12 -23 12 -10 0 -19 6 -20 13 0 10 -2 10 -6 0 -5 -14
-33 -18 -33 -5 0 4 -25 5 -55 4 -36 -3 -55 0 -55 7 0 7 12 9 30 6 18 -3 30 -1
30 6 0 6 10 10 23 9 40 -4 54 1 32 10 -13 6 -15 9 -5 9 8 0 22 -4 30 -9z
m-1496 -15 c-4 -8 -8 -15 -10 -15 -2 0 -4 7 -4 15 0 8 4 15 10 15 5 0 7 -7 4
-15z m1234 -64 c7 -11 9 -21 4 -21 -15 0 -30 23 -37 55 -7 32 -8 33 33 -34z
m109 53 c-3 -3 -12 -4 -19 -1 -8 3 -5 6 6 6 11 1 17 -2 13 -5z m-1290 -20 c-3
-3 -12 -4 -19 -1 -8 3 -5 6 6 6 11 1 17 -2 13 -5z m1783 -13 c0 -3 -4 -12 -9
-19 -6 -11 -9 -9 -13 5 -3 12 0 20 8 20 8 0 14 -3 14 -6z m-1270 -11 c-20 -13
-33 -13 -25 0 3 6 14 10 23 10 15 0 15 -2 2 -10z m565 -21 c10 -44 -11 -64
-50 -49 -21 8 -25 14 -17 19 9 5 11 17 6 34 -6 25 -4 27 24 27 26 0 31 -5 37
-31z m-620 4 c-10 -9 -20 -10 -39 -3 -35 13 -33 15 13 16 32 0 37 -2 26 -13z
m815 -8 c1 19 1 19 14 3 7 -10 18 -18 25 -18 6 0 11 -4 11 -10 0 -5 5 -10 10
-10 19 0 10 21 -12 31 -17 7 -7 8 41 5 53 -4 72 -10 117 -42 66 -44 72 -54 45
-61 -21 -5 -31 -43 -12 -43 6 0 32 -22 58 -49 26 -26 60 -54 74 -62 15 -8 38
-28 53 -45 25 -31 25 -32 5 -37 -23 -6 -141 31 -134 42 2 4 -33 27 -78 51 -45
24 -84 47 -85 52 -2 4 -8 6 -13 3 -5 -4 -17 -1 -26 4 -17 10 -17 10 0 11 9 0
17 4 17 8 0 11 -47 52 -53 46 -3 -3 -8 0 -13 7 -4 7 -3 10 4 5 5 -3 12 0 15 6
3 10 7 10 21 -1 14 -12 16 -12 10 3 -3 9 -12 16 -20 16 -8 0 -14 5 -14 10 0 6
5 10 12 10 6 0 9 3 5 6 -11 11 -47 -7 -48 -24 0 -11 -2 -13 -6 -4 -4 10 -8 10
-19 1 -9 -8 -14 -8 -14 -1 0 6 4 13 9 17 15 9 9 44 -7 38 -9 -4 -10 -9 -3 -16
6 -6 5 -14 -4 -24 -8 -7 -11 -21 -8 -31 3 -9 4 -15 2 -12 -2 3 -13 15 -24 28
-13 16 -15 22 -5 20 9 -2 15 7 16 26 2 16 6 36 10 45 5 14 7 13 14 -4 l9 -20
1 20z m293 -9 c3 -8 -3 -12 -16 -11 -11 1 -22 6 -24 11 -5 15 35 15 40 0z m63
-11 c18 -13 18 -14 -4 -8 -12 3 -25 9 -28 14 -8 14 10 11 32 -6z m177 -21 c5
-30 -8 -20 -18 15 -4 15 -3 21 3 17 5 -3 12 -17 15 -32z m-1388 -4 c-3 -5 -12
-10 -18 -10 -7 0 -6 4 3 10 19 12 23 12 15 0z m52 -12 c-3 -8 -6 -5 -6 6 -1
11 2 17 5 13 3 -3 4 -12 1 -19z m373 -5 c15 -16 36 -33 45 -38 23 -14 40 -56
20 -49 -8 3 -14 9 -13 12 2 18 -3 35 -8 29 -3 -3 -17 -2 -30 3 -14 6 -24 6
-24 0 0 -4 6 -10 13 -13 6 -2 4 -3 -6 -1 -13 2 -17 -2 -13 -12 4 -10 0 -14
-12 -12 -12 2 -17 -3 -16 -19 1 -23 -21 -39 -31 -23 -4 6 -1 10 4 10 6 0 11 7
11 15 0 8 -4 15 -10 15 -5 0 -7 6 -4 14 3 8 0 17 -7 22 -9 5 -10 2 -6 -9 4
-11 -1 -18 -14 -22 -11 -4 -19 -11 -17 -17 4 -12 24 -9 21 3 -2 5 1 9 7 9 5 0
9 -15 7 -32 -2 -25 -7 -33 -22 -33 -11 0 -23 -6 -26 -14 -3 -7 -24 -24 -48
-36 -23 -13 -38 -26 -32 -29 5 -4 26 4 47 16 21 12 35 17 31 11 -4 -7 -20 -18
-35 -26 -15 -8 -49 -27 -76 -42 -41 -24 -63 -29 -130 -32 -56 -2 -75 0 -61 6
11 5 14 10 7 10 -15 1 -10 25 14 75 8 16 14 31 14 33 0 2 -22 -8 -50 -22 -48
-24 -91 -33 -89 -17 0 4 24 25 52 47 64 49 47 56 -45 17 -54 -23 -74 -37 -98
-73 -33 -50 -33 -81 2 -158 36 -81 58 -142 49 -137 -5 4 -15 23 -22 44 -7 20
-24 61 -39 90 -34 64 -45 128 -27 161 17 34 92 83 184 120 43 18 87 36 98 40
65 27 78 31 82 28 2 -3 -3 -12 -12 -21 -14 -14 -14 -16 -1 -16 8 0 27 5 43 11
33 12 117 31 153 33 16 1 24 7 22 16 -2 8 -1 12 3 8 4 -3 15 2 26 13 25 25 35
24 69 -8z m110 7 c0 -5 -2 -10 -4 -10 -3 0 -8 5 -11 10 -3 6 -1 10 4 10 6 0
11 -4 11 -10z m200 -10 c-24 -15 -36 -11 -14 4 10 8 21 12 24 10 2 -3 -2 -9
-10 -14z m-765 0 c3 -6 -4 -10 -17 -10 -18 0 -20 2 -8 10 19 12 18 12 25 0z
m145 1 c0 -17 -18 -21 -24 -6 -3 9 0 15 9 15 8 0 15 -4 15 -9z m1377 -29 c17
-20 40 -57 53 -82 12 -24 31 -56 42 -71 l20 -26 -37 -77 c-21 -42 -42 -79 -47
-82 -5 -3 5 21 21 55 36 70 37 85 12 126 -10 17 -24 48 -31 70 -7 22 -22 51
-34 65 -38 43 -49 60 -39 60 5 0 23 -17 40 -38z m-885 -2 c11 0 15 -5 12 -15
-4 -8 -10 -15 -16 -15 -5 0 -6 5 -3 10 6 10 -7 14 -31 11 -7 -1 -14 8 -17 19
-5 18 -4 19 16 5 12 -8 29 -15 39 -15z m1238 20 c0 -5 25 -37 54 -70 43 -48
56 -70 60 -103 12 -100 26 -194 32 -216 6 -18 4 -22 -6 -16 -8 5 -11 3 -8 -6
3 -8 11 -14 19 -14 7 0 15 -9 17 -19 4 -18 2 -18 -23 2 -15 12 -34 22 -41 22
-8 0 -13 3 -12 8 1 4 -9 29 -21 57 -20 45 -91 318 -91 351 0 8 5 14 10 14 6 0
10 -4 10 -10z m-1144 -12 c4 -7 3 -8 -4 -4 -7 4 -12 1 -12 -9 0 -13 -2 -14
-14 -3 -14 13 -12 15 21 27 1 1 5 -4 9 -11z m-186 -18 c0 -5 -2 -10 -4 -10 -3
0 -8 5 -11 10 -3 6 -1 10 4 10 6 0 11 -4 11 -10z m290 6 c0 -2 -7 -7 -16 -10
-8 -3 -12 -2 -9 4 6 10 25 14 25 6z m-260 -16 c0 -5 -2 -10 -4 -10 -3 0 -8 5
-11 10 -3 6 -1 10 4 10 6 0 11 -4 11 -10z m215 -10 c3 -5 -1 -10 -10 -10 -9 0
-13 5 -10 10 3 6 8 10 10 10 2 0 7 -4 10 -10z m99 -9 c3 -4 -6 -6 -19 -3 -14
2 -25 6 -25 8 0 8 39 4 44 -5z m367 -21 c19 -16 39 -30 45 -30 6 0 21 -11 34
-25 13 -14 19 -25 13 -25 -6 0 -16 7 -23 15 -7 8 -20 15 -29 15 -18 0 -91 56
-91 71 0 16 17 10 51 -21z m-795 -10 c0 -12 -4 -16 -9 -11 -5 5 -6 14 -3 20
10 15 12 14 12 -9z m254 5 c0 -8 -4 -15 -10 -15 -5 0 -7 7 -4 15 4 8 8 15 10
15 2 0 4 -7 4 -15z m250 0 c-7 -8 -16 -15 -21 -15 -5 0 -6 7 -3 15 4 8 13 15
21 15 13 0 13 -3 3 -15z m710 -75 c0 -21 -3 -19 -20 15 -11 22 -20 48 -20 60
1 29 39 -43 40 -75z m-750 70 c0 -5 -4 -10 -10 -10 -5 0 -10 5 -10 10 0 6 5
10 10 10 6 0 10 -4 10 -10z m-1529 -91 c-4 -46 -4 -94 0 -106 27 -73 14 -193
-20 -193 -8 0 -12 -3 -8 -6 3 -3 -7 -20 -22 -36 -24 -26 -31 -29 -50 -19 -12
7 -20 8 -19 3 2 -5 -16 -28 -39 -52 -42 -42 -54 -58 -32 -44 8 5 8 1 0 -13 -6
-13 -7 -23 0 -30 12 -12 1 -43 -14 -43 -8 0 -7 4 1 12 13 13 -3 52 -19 43 -5
-4 -9 -1 -9 6 0 7 -3 9 -7 5 -5 -4 1 -14 11 -21 18 -13 18 -16 2 -40 -9 -14
-21 -25 -27 -25 -6 0 -7 -6 -3 -12 5 -10 4 -10 -6 -1 -9 9 -7 16 10 33 17 17
19 24 10 30 -7 5 -14 23 -15 42 -3 36 42 104 109 165 27 24 40 48 55 100 21
77 95 293 98 289 2 -1 -1 -40 -6 -87z m1139 82 c0 -6 -4 -12 -8 -15 -5 -3 -9
1 -9 9 0 8 4 15 9 15 4 0 8 -4 8 -9z m-903 -79 c-4 -34 -21 -89 -41 -132 -19
-41 -37 -92 -41 -113 -5 -26 -12 -37 -21 -33 -17 7 -28 -11 -12 -17 10 -4 10
-8 -1 -15 -7 -5 -10 -15 -7 -21 8 -12 -17 -55 -26 -46 -3 3 -11 -1 -18 -10
-11 -13 -10 -14 5 -9 15 6 16 4 6 -15 -7 -12 -17 -21 -24 -20 -34 4 -42 -2
-22 -17 19 -14 18 -15 -10 -12 -17 1 -36 -1 -43 -6 -19 -12 -14 3 15 41 15 19
37 39 50 44 19 7 22 14 17 33 -5 21 24 94 46 116 3 3 11 23 18 45 15 45 105
244 111 245 2 0 1 -26 -2 -58z m1868 -7 c3 -11 1 -33 -4 -50 -9 -30 -9 -29
-10 11 -1 43 -12 59 -45 65 -11 2 -21 9 -23 16 -3 8 9 7 37 -5 23 -10 43 -25
45 -37z m55 -21 c0 -7 -4 -16 -10 -19 -5 -3 -10 3 -10 15 0 12 -5 31 -11 43
-10 21 -9 21 10 -2 12 -13 21 -29 21 -37z m-1004 -131 c8 -43 20 -42 28 3 4
21 12 34 19 31 7 -2 17 3 24 12 11 15 13 14 29 -1 24 -23 21 -145 -4 -170 -24
-23 -62 -7 -62 27 0 14 -5 25 -11 25 -7 0 -9 -10 -5 -25 5 -20 1 -27 -23 -39
-26 -14 -30 -14 -41 -1 -7 8 -18 15 -25 15 -8 0 -14 21 -17 58 -4 44 -1 66 15
99 l20 42 24 -22 c12 -12 25 -37 29 -54z m224 51 c0 -14 4 -23 10 -19 6 3 10
-1 10 -9 0 -24 16 -19 40 11 l22 28 39 -43 c39 -41 40 -42 64 -26 14 9 25 20
25 25 0 18 16 8 32 -21 14 -25 15 -40 8 -86 -17 -101 -23 -109 -55 -74 -10 11
-24 20 -32 20 -8 0 -13 13 -14 38 l-1 37 -10 -36 c-11 -41 -44 -63 -71 -47 -9
5 -17 18 -17 28 0 11 -4 20 -9 20 -5 0 -7 19 -4 42 7 50 -11 46 -21 -5 -3 -19
-17 -44 -30 -56 l-24 -23 -23 23 c-16 16 -24 38 -27 77 -4 50 -2 56 29 88 39
41 59 43 59 8z m-330 -125 c0 -47 -4 -60 -19 -69 -25 -13 -31 -4 -41 68 -7 50
-5 61 13 89 l21 32 13 -31 c7 -17 13 -57 13 -89z m1196 -61 l-14 -33 -1 64
c-1 35 5 82 12 105 l12 41 3 -72 c2 -46 -2 -83 -12 -105z m-1285 106 c21 -91
2 -148 -41 -122 -16 11 -20 23 -20 73 0 40 6 69 16 84 20 28 32 18 45 -35z
m-83 -51 c2 -52 -1 -73 -12 -82 -12 -10 -17 -8 -30 11 -22 33 -22 77 -2 116
26 50 41 35 44 -45z m832 38 c24 -47 -34 -191 -61 -151 -20 31 15 170 43 170
4 0 12 -9 18 -19z m78 -77 c-12 -68 -39 -98 -65 -72 -11 12 -12 24 -2 69 12
62 44 99 66 77 10 -11 10 -26 1 -74z m-1001 64 c8 -14 12 -32 16 -88 2 -29 -2
-36 -19 -38 -29 -4 -51 67 -34 109 13 31 24 36 37 17z m1067 -41 c-6 -28 -5
-30 10 -18 14 12 16 11 16 -10 0 -13 -7 -33 -15 -43 -14 -19 -15 -18 -15 10
l0 29 -13 -24 c-6 -14 -18 -27 -26 -29 -20 -7 -7 85 15 110 23 24 37 12 28
-25z m-1125 -33 c20 -44 20 -64 2 -64 -9 0 -41 77 -41 98 0 27 20 9 39 -34z
m-33 -29 c24 -51 11 -67 -14 -18 -12 23 -22 47 -22 53 0 19 19 1 36 -35z
m1916 23 c-7 -7 -12 -8 -12 -2 0 14 12 26 19 19 2 -3 -1 -11 -7 -17z m-1957
-28 c17 -33 19 -44 6 -36 -10 6 -33 66 -26 66 3 0 11 -13 20 -30z m736 -78
c-7 -67 -16 -100 -31 -122 -26 -36 -30 -36 -54 -4 -16 23 -17 37 -11 125 4 54
11 99 16 99 5 0 9 -4 9 -10 0 -16 36 -12 50 5 24 29 30 0 21 -93z m-115 36
c-3 -23 -6 -63 -6 -88 0 -29 -7 -54 -19 -70 -11 -14 -21 -23 -23 -20 -57 77
-61 89 -54 157 3 38 6 69 6 71 0 2 15 0 34 -3 21 -4 36 -3 41 5 14 23 27 -8
21 -52z m1393 12 c1 -13 0 -13 -9 0 -5 8 -9 24 -9 35 l0 20 9 -20 c5 -11 9
-27 9 -35z m-1606 18 c4 -23 5 -23 11 -2 7 18 11 19 42 10 32 -10 34 -13 36
-61 2 -70 -2 -107 -14 -129 -10 -18 -12 -16 -31 20 -11 21 -24 55 -28 74 -6
34 -7 33 -8 -13 0 -26 -8 -62 -17 -78 -15 -29 -16 -30 -34 -14 -36 33 -52 226
-16 196 10 -8 17 -7 26 4 17 21 28 19 33 -7z m500 -5 c12 -15 14 -30 8 -83 -8
-62 -32 -133 -49 -144 -4 -2 -14 9 -21 26 -11 25 -12 40 -3 75 7 24 12 59 12
77 0 65 21 84 53 49z m-620 -11 c32 -35 47 -182 18 -182 -20 0 -50 50 -56 93
-4 26 -12 47 -17 47 -6 0 -8 -10 -4 -22 3 -13 9 -32 12 -43 2 -11 -1 -28 -9
-39 -13 -17 -15 -16 -30 17 -9 19 -18 57 -19 83 -3 44 -1 49 20 52 17 3 22 -2
23 -20 1 -22 3 -19 14 20 6 17 29 15 48 -6z m515 11 c20 -5 23 -11 20 -34 -3
-16 -1 -29 4 -29 21 0 -2 -109 -31 -144 -19 -23 -34 -8 -16 17 8 12 15 28 15
37 0 9 -7 4 -18 -12 -9 -16 -21 -28 -25 -28 -8 0 -4 71 9 163 6 40 7 40 42 30z
m-1398 -23 c0 -5 -4 -10 -10 -10 -5 0 -10 5 -10 10 0 6 5 10 10 10 6 0 10 -4
10 -10z m1584 -16 c24 -35 13 -124 -20 -159 -13 -14 -27 -25 -33 -25 -16 0
-22 35 -11 64 5 15 10 45 10 67 0 41 14 79 29 79 5 0 16 -12 25 -26z m-826
-36 c11 -58 10 -63 -12 -55 -16 7 -32 68 -22 92 11 29 23 15 34 -37z m901 30
c11 -31 2 -85 -21 -125 -21 -35 -43 -45 -33 -14 3 10 6 47 8 82 2 59 9 78 30
79 4 0 11 -10 16 -22z m47 -82 c-3 -12 -14 -27 -25 -33 -19 -12 -20 -11 -11
13 6 14 10 42 10 63 0 20 6 43 13 50 10 10 13 4 15 -30 2 -23 1 -52 -2 -63z
m-999 33 c6 -40 5 -43 -10 -30 -10 7 -17 19 -17 26 0 7 -7 15 -15 19 -8 3 -15
13 -15 23 0 14 2 15 9 5 6 -11 10 -10 15 4 10 27 27 4 33 -47z m-67 30 c0 -6
-4 -7 -10 -4 -5 3 -10 11 -10 16 0 6 5 7 10 4 6 -3 10 -11 10 -16z m1110 7 c0
-8 -4 -18 -10 -21 -5 -3 -10 3 -10 14 0 12 5 21 10 21 6 0 10 -6 10 -14z m5
-47 c-14 -23 -29 -38 -32 -35 -3 3 8 25 23 49 16 25 31 40 32 35 2 -5 -8 -27
-23 -49z m172 -24 c-5 -68 3 -104 17 -73 3 7 4 -3 3 -22 -2 -27 -6 -35 -20
-34 -17 2 -17 1 -1 -17 10 -11 12 -19 5 -19 -7 0 -10 -10 -6 -27 2 -16 -1 -10
-8 11 -11 32 -15 36 -20 22 -4 -10 -3 -24 3 -31 8 -9 7 -14 -3 -18 -10 -4 -13
6 -13 39 1 53 -8 56 -24 8 -19 -58 -24 -30 -7 38 9 35 18 72 20 83 3 11 5 4 6
-15 1 -39 16 -69 28 -57 4 5 3 11 -3 15 -10 7 13 172 24 172 3 0 2 -34 -1 -75z
m683 44 c0 -6 -4 -7 -10 -4 -5 3 -10 11 -10 16 0 6 5 7 10 4 6 -3 10 -11 10
-16z m-2079 -196 c32 -76 55 -97 44 -40 -12 64 -28 118 -36 123 -5 3 -9 13 -9
22 0 26 22 -10 57 -93 17 -38 44 -90 61 -115 17 -25 26 -46 21 -48 -11 -4 -12
-23 -1 -21 20 3 32 -2 32 -14 0 -15 142 -157 157 -157 3 0 3 18 -1 41 l-7 41
48 -5 c27 -3 56 -8 66 -12 10 -4 17 -3 17 4 0 6 -7 11 -15 11 -8 0 -15 5 -15
11 0 6 10 9 23 6 79 -18 87 -19 87 -3 0 9 -8 16 -17 16 -17 1 -17 2 0 14 13
10 15 16 6 22 -7 4 -17 0 -25 -10 -11 -16 -15 -17 -34 -3 -21 15 -21 15 14 27
37 12 81 5 71 -11 -4 -5 -1 -9 4 -9 6 0 11 4 11 9 0 5 14 8 32 6 25 -2 32 -7
34 -27 2 -21 -3 -27 -29 -35 -31 -10 -31 -10 15 -10 38 0 45 3 41 16 -3 12 0
11 11 -3 16 -20 16 -20 17 0 0 18 1 18 9 -1 5 -11 9 -15 9 -10 1 6 18 11 39
11 50 2 141 23 174 40 14 8 40 14 57 14 17 0 31 5 31 10 0 6 4 10 10 10 5 0 7
-7 4 -15 -4 -8 -11 -15 -17 -15 -12 0 -78 -72 -72 -78 2 -2 18 5 35 15 18 10
40 22 50 27 16 9 65 93 62 107 0 3 11 12 26 20 15 8 36 22 46 32 11 9 23 17
28 17 4 0 27 17 50 38 26 23 39 30 35 19 -4 -10 -7 -23 -7 -27 0 -5 -8 -17
-19 -27 -26 -26 -55 -73 -44 -73 5 0 15 6 22 13 8 6 12 7 10 2 -8 -21 -98 -97
-108 -90 -7 3 -8 0 -5 -9 4 -11 0 -16 -12 -16 -9 0 -14 -3 -11 -7 4 -3 -3 -17
-15 -30 -18 -19 -19 -25 -9 -36 11 -9 14 -9 18 1 3 6 9 10 14 7 4 -3 21 2 36
12 26 18 27 18 19 -2 -14 -35 -15 -59 -7 -95 l9 -35 1 47 c1 54 20 76 22 26 1
-18 3 -40 4 -48 1 -8 3 -31 4 -50 2 -19 5 -30 7 -23 4 8 13 9 29 3 23 -9 75 6
75 23 0 4 6 7 14 7 9 0 12 7 9 19 -3 13 2 23 16 30 12 7 21 17 21 24 0 8 14
26 31 43 l32 29 -8 -55 c-4 -30 -9 -84 -12 -120 -2 -36 -10 -69 -16 -73 -9 -6
-9 -10 1 -14 14 -6 17 -33 2 -33 -5 0 -7 -15 -5 -32 2 -18 -2 -45 -10 -60 -9
-18 -9 -27 -2 -25 6 1 12 -2 12 -8 1 -5 4 -19 8 -30 8 -23 14 -61 23 -150 3
-33 10 -64 15 -69 12 -13 12 -69 0 -62 -5 4 -7 -2 -4 -12 5 -23 -31 -170 -47
-186 -8 -8 -13 -7 -19 2 -5 9 -11 -9 -15 -48 -6 -54 -24 -120 -25 -96 -1 13
-33 -23 -50 -56 -8 -16 -19 -24 -27 -21 -10 4 -12 0 -7 -13 5 -13 3 -15 -7 -9
-10 6 -12 3 -8 -13 10 -35 -2 -25 -22 21 -11 23 -20 56 -20 73 0 19 -11 46
-30 69 -16 21 -30 46 -30 56 0 10 -4 21 -10 24 -6 4 -10 -5 -10 -19 0 -24 -3
-26 -44 -26 -40 0 -48 4 -80 43 -26 31 -49 47 -90 61 -46 16 -56 23 -56 42 0
13 8 25 19 29 24 7 45 57 37 88 -3 14 1 33 10 46 19 27 16 143 -5 163 -10 11
-11 10 -6 -4 4 -10 3 -18 -3 -18 -29 0 -18 75 13 86 8 4 15 10 15 15 0 12 -37
11 -60 -1 -15 -8 -19 -5 -24 15 -8 32 -49 59 -76 50 -20 -6 -20 -8 -4 -19 15
-11 12 -14 -21 -19 -43 -7 -65 5 -65 35 0 16 -3 17 -21 8 -11 -6 -23 -19 -26
-28 -3 -9 -15 -25 -27 -34 l-21 -18 23 0 c12 0 22 -4 22 -10 0 -5 -6 -10 -14
-10 -17 0 -46 27 -46 43 0 7 -4 6 -10 -3 -13 -20 -13 -97 0 -105 6 -4 1 -18
-11 -34 -25 -33 -23 -77 4 -75 9 1 17 -2 17 -7 0 -9 -14 -13 -37 -10 -22 3
-14 -21 9 -27 21 -5 21 -6 2 -12 -10 -4 -32 -3 -47 3 -23 8 -28 14 -24 33 2
15 -3 30 -14 40 -18 16 -19 16 -19 -1 0 -10 -10 -29 -22 -43 -23 -23 -23 -24
-4 -38 20 -14 56 -18 134 -15 41 2 42 1 42 -28 0 -20 9 -39 26 -55 l27 -24
-39 -11 c-21 -6 -56 -11 -77 -11 -31 0 -45 -7 -68 -31 -16 -17 -28 -39 -27
-48 3 -13 -7 -16 -52 -16 -66 0 -122 -30 -147 -78 -8 -18 -22 -39 -29 -47 -8
-8 -22 -24 -32 -35 -9 -12 -12 -14 -7 -6 8 12 6 13 -7 8 -10 -3 -18 -2 -18 3
0 6 6 10 13 11 10 0 10 2 0 6 -7 2 -13 17 -13 31 -1 28 -30 78 -30 51 0 -8 -9
6 -20 30 -11 24 -20 52 -20 63 0 10 -8 33 -17 51 -25 46 -24 259 1 339 16 48
17 60 5 74 -12 14 -14 13 -23 -8 -19 -42 -20 70 -1 118 18 46 16 83 -4 108 -7
8 -11 20 -9 26 6 19 88 -69 88 -95 0 -14 -4 -25 -10 -25 -19 0 -10 -28 10 -33
13 -3 20 0 20 9 0 8 5 14 10 14 6 0 10 28 11 63 0 53 2 59 11 37 6 -14 10 -34
9 -45 -2 -17 0 -17 8 -5 6 8 11 23 11 33 0 10 5 15 11 12 13 -9 49 23 49 43 0
9 6 12 16 8 13 -5 15 -2 11 16 -4 12 -1 28 5 35 8 10 6 13 -6 13 -11 0 -16 9
-16 28 0 21 2 24 10 12 11 -17 13 -10 4 14 -3 9 -10 14 -14 11 -4 -3 -10 1
-13 9 -7 17 30 29 37 12 2 -6 5 -6 5 -1 0 6 -3 16 -8 24 -8 13 -12 13 -27 0
-16 -13 -17 -12 -12 9 6 23 -6 31 -16 10 -3 -7 -4 -6 -3 4 1 9 -1 16 -4 15
-13 -4 -50 37 -45 49 2 6 -18 33 -46 60 -30 29 -48 41 -43 29 4 -11 9 -31 12
-45 3 -19 -1 -16 -16 14 -11 21 -24 43 -30 50 -5 6 -22 36 -39 66 -16 30 -41
75 -55 100 -22 39 -32 87 -28 125 2 14 67 -108 102 -192z m169 30 c0 -33 -17
-28 -24 7 -3 17 -16 41 -28 53 -13 13 -36 41 -52 63 -16 22 0 10 38 -31 41
-43 66 -79 66 -92z m1779 109 c23 -45 27 -70 17 -99 -7 -23 -26 -32 -26 -12 0
5 -4 8 -8 5 -5 -3 -8 29 -8 69 1 41 2 75 3 75 2 0 11 -17 22 -38z m353 -11
c46 -42 57 -59 72 -112 9 -34 15 -63 13 -65 -4 -5 -117 150 -139 192 -25 47
-9 42 54 -15z m-3154 17 c0 -13 3 -33 7 -45 5 -15 3 -23 -5 -23 -6 0 -18 -7
-26 -15 -9 -8 -11 -15 -5 -15 6 0 11 -6 11 -14 0 -8 6 -17 13 -19 7 -3 7 -6 1
-6 -6 -1 -21 8 -33 18 -13 11 -28 18 -35 15 -14 -5 -19 -44 -5 -44 5 0 9 5 9
10 0 13 27 13 35 1 3 -6 -11 -13 -31 -17 -26 -5 -39 -3 -45 7 -6 10 -9 11 -9
2 0 -7 -5 -13 -11 -13 -6 0 -9 8 -7 18 2 9 10 16 17 14 7 -1 10 2 7 7 -7 11
44 71 60 71 7 0 15 -6 18 -12 3 -7 3 -3 0 9 -3 12 2 33 12 48 20 31 22 31 22
3z m2617 13 c6 -1 10 -16 11 -35 0 -29 -2 -32 -13 -20 -8 8 -12 17 -9 22 2 4
1 14 -5 22 -5 8 -9 10 -9 4 0 -6 -7 -11 -15 -11 -8 0 -15 3 -15 7 0 12 11 18
28 15 9 -2 22 -4 27 -4z m-2510 -11 c3 -5 1 -10 -4 -10 -6 0 -11 5 -11 10 0 6
2 10 4 10 3 0 8 -4 11 -10z m174 -13 c12 -15 12 -17 -3 -11 -9 3 -16 13 -16
22 0 8 1 13 3 11 1 -2 9 -12 16 -22z m2063 -2 c-2 -14 -6 -25 -8 -25 -2 0 -4
11 -4 25 0 14 4 25 9 25 4 0 6 -11 3 -25z m-2074 -31 c13 -9 12 -11 -4 -9 -10
0 -28 7 -39 14 -15 9 -16 11 -2 7 11 -4 17 0 18 12 0 14 2 14 6 2 4 -8 13 -20
21 -26z m1812 7 c-5 -11 -15 -23 -20 -26 -5 -3 -15 -15 -21 -26 -10 -19 -9
-20 13 -8 24 13 -93 -103 -152 -151 -51 -40 -105 -69 -150 -79 -50 -11 -60 1
-14 18 18 7 34 16 34 20 0 4 11 13 24 19 32 14 206 160 252 212 40 44 50 50
34 21z m-1650 -38 c-4 -16 -25 -84 -45 -153 -20 -69 -43 -130 -51 -136 -8 -7
-11 -14 -7 -15 5 -2 6 -17 2 -34 -4 -16 -7 -22 -8 -12 0 9 -5 17 -11 17 -5 0
-7 -7 -3 -16 4 -12 2 -15 -8 -12 -8 3 -14 14 -13 25 0 18 -3 20 -28 11 -15 -6
-28 -14 -28 -20 0 -5 5 -6 10 -3 12 8 13 -8 1 -20 -5 -6 -11 -19 -13 -29 -3
-18 -4 -19 -20 -3 -9 10 -19 13 -22 8 -4 -5 -1 -11 5 -13 6 -2 13 -23 16 -47
4 -31 2 -41 -6 -37 -6 4 -8 12 -5 18 5 8 1 9 -12 5 -18 -7 -18 -6 -2 6 16 13
16 16 2 33 -10 12 -14 14 -11 4 3 -13 -14 -40 -26 -40 -2 0 -2 14 1 30 2 17 9
30 14 30 5 0 6 4 3 10 -6 10 21 70 31 70 4 0 4 -9 1 -20 -12 -46 8 -13 69 114
39 83 83 158 114 195 28 34 53 61 55 61 2 0 0 -12 -5 -27z m553 -45 c10 -17
15 -33 13 -36 -10 -9 -36 20 -36 39 0 11 -4 19 -9 19 -5 0 -11 7 -15 15 -10
26 28 -4 47 -37z m1592 32 c-3 -5 -1 -10 6 -10 7 0 10 -2 7 -5 -8 -9 -38 6
-32 16 3 5 10 9 15 9 6 0 7 -4 4 -10z m45 6 c0 -11 -19 -15 -25 -6 -3 5 1 10
9 10 9 0 16 -2 16 -4z m-2577 -21 c4 -8 3 -16 -1 -19 -4 -3 -9 4 -9 15 -2 23
3 25 10 4z m1013 -26 c19 -22 19 -22 -3 -8 -13 8 -23 17 -23 21 0 12 6 9 26
-13z m1642 -24 c1 -28 -2 -32 -18 -28 -12 3 -17 10 -13 21 5 11 2 13 -8 8 -8
-4 -5 0 5 8 18 14 15 21 -7 17 -5 -1 -6 3 -3 8 3 5 14 7 24 4 13 -3 19 -15 20
-38z m401 -9 c-3 -3 -11 5 -18 17 -13 21 -12 21 5 5 10 -10 16 -20 13 -22z
m-2079 -7 c-7 -11 -14 -18 -17 -15 -3 3 0 12 7 21 18 21 23 19 10 -6z m1780
12 c0 -17 -18 -21 -24 -6 -3 9 0 15 9 15 8 0 15 -4 15 -9z m-1720 -11 c0 -5
-4 -10 -10 -10 -5 0 -10 5 -10 10 0 6 5 10 10 10 6 0 10 -4 10 -10z m1555 0
c3 -6 -1 -7 -9 -4 -18 7 -21 14 -7 14 6 0 13 -4 16 -10z m-1530 -9 c3 -5 1
-12 -5 -16 -5 -3 -10 1 -10 9 0 18 6 21 15 7z m1815 -69 c40 -128 72 -189 124
-239 l54 -52 -39 -25 c-47 -31 -51 -32 -74 -6 -27 29 -43 9 -21 -25 10 -15 20
-24 23 -21 3 3 0 12 -7 21 -7 8 -8 15 -2 15 13 0 23 -26 16 -44 -8 -20 -34 -8
-45 21 -5 13 -13 21 -19 18 -5 -3 -10 2 -10 12 0 10 -15 50 -33 88 -29 61 -33
79 -32 146 1 87 29 167 47 135 5 -10 14 -30 18 -44z m-1790 28 c0 -5 -5 -10
-11 -10 -5 0 -7 5 -4 10 3 6 8 10 11 10 2 0 4 -4 4 -10z m515 -10 c3 -5 1 -10
-4 -10 -6 0 -11 5 -11 10 0 6 2 10 4 10 3 0 8 -4 11 -10z m-190 -21 c11 -17
-1 -21 -15 -4 -8 9 -8 15 -2 15 6 0 14 -5 17 -11z m1242 -21 c-3 -8 -6 -5 -6
6 -1 11 2 17 5 13 3 -3 4 -12 1 -19z m-1993 -37 c14 -26 37 -62 51 -80 21 -24
23 -31 11 -31 -9 0 -16 5 -16 11 0 5 -5 7 -11 4 -7 -5 -5 -15 5 -30 9 -13 13
-31 10 -39 -4 -9 1 -18 10 -22 20 -8 21 -24 1 -24 -8 0 -15 -5 -15 -11 0 -5 4
-8 8 -5 5 3 8 -16 8 -43 -1 -41 -4 -47 -22 -49 -12 -1 -27 5 -33 12 -14 16
-22 107 -12 121 5 6 2 44 -5 85 -25 137 -27 150 -20 150 3 0 17 -22 30 -49z
m2515 28 c-9 -5 -10 -9 -3 -9 17 0 25 -28 12 -36 -7 -4 -8 -3 -4 4 4 6 -2 17
-12 23 -15 9 -17 15 -8 25 6 6 15 10 20 7 4 -3 2 -9 -5 -14z m-1309 -3 c0 -2
-7 -7 -16 -10 -8 -3 -12 -2 -9 4 6 10 25 14 25 6z m-380 -21 c0 -8 -9 -15 -21
-15 -11 0 -17 5 -14 10 4 6 11 8 16 5 5 -4 9 -1 9 4 0 6 2 11 5 11 3 0 5 -7 5
-15z m1307 -7 c-3 -8 -6 -5 -6 6 -1 11 2 17 5 13 3 -3 4 -12 1 -19z m-3052
-58 c1 -39 0 -70 -2 -70 -1 0 -16 8 -32 18 l-30 18 27 52 c14 29 29 52 32 52
3 0 5 -32 5 -70z m165 61 c11 -1 15 -14 15 -51 1 -41 -2 -50 -16 -50 -28 0
-49 11 -49 26 0 8 -5 14 -11 14 -6 0 -9 -7 -6 -15 4 -8 2 -17 -2 -19 -12 -8
-22 64 -11 83 5 11 19 16 37 15 15 -1 35 -3 43 -3z m1345 0 c3 -5 1 -12 -5
-16 -5 -3 -10 1 -10 9 0 18 6 21 15 7z m145 -1 c0 -5 -2 -10 -4 -10 -3 0 -8 5
-11 10 -3 6 -1 10 4 10 6 0 11 -4 11 -10z m-180 -4 c0 -3 -4 -8 -10 -11 -5 -3
-10 -1 -10 4 0 6 5 11 10 11 6 0 10 -2 10 -4z m290 -35 c0 -8 -61 -22 -69 -15
-1 1 0 7 4 13 8 13 65 15 65 2z m1693 -17 c-3 -9 1 -14 12 -14 12 0 15 5 10
21 -6 18 -5 20 14 10 12 -7 21 -18 21 -26 0 -7 5 -17 12 -21 7 -5 8 -2 3 7 -4
8 7 -1 24 -19 17 -19 41 -52 52 -75 12 -22 37 -65 57 -94 25 -38 41 -79 53
-136 l17 -82 -45 50 c-70 78 -173 212 -173 225 0 7 -11 21 -25 31 -14 12 -22
26 -18 34 3 9 -1 15 -11 15 -9 0 -13 6 -10 14 3 8 -2 16 -13 19 -11 3 -8 5 11
6 22 1 27 -3 22 -15 -3 -8 -2 -12 4 -9 15 9 12 35 -3 35 -17 0 -49 34 -41 43
11 10 33 -4 27 -19z m-3181 -19 c3 -13 1 -22 -3 -19 -9 5 -13 44 -5 44 2 0 6
-11 8 -25z m1950 3 c-7 -7 -12 -8 -12 -2 0 14 12 26 19 19 2 -3 -1 -11 -7 -17z
m-882 -20 c0 -16 -3 -19 -11 -11 -6 6 -8 16 -5 22 11 17 16 13 16 -11z m850
-7 c0 -5 -7 -11 -14 -14 -10 -4 -13 -1 -9 9 6 15 23 19 23 5z m-2260 -16 c21
-3 50 -18 50 -26 0 -6 -10 -8 -22 -4 -14 4 -18 3 -11 -2 8 -6 -7 -26 -48 -65
-32 -30 -59 -54 -59 -51 0 3 7 30 16 61 20 69 42 104 58 95 6 -4 13 -8 16 -8z
m555 -2 c3 -10 1 -19 -4 -21 -6 -2 -9 -8 -5 -13 3 -5 -2 -9 -11 -9 -13 0 -14
4 -5 20 6 11 8 25 5 30 -3 6 -2 10 3 10 6 0 13 -8 17 -17z m2134 -98 c6 -49
13 -112 16 -140 3 -27 8 -57 11 -66 5 -18 -22 -46 -33 -35 -4 4 -2 11 6 15 10
6 9 10 -4 15 -24 9 -32 7 -15 -4 10 -6 11 -10 3 -10 -7 0 -13 -7 -13 -16 0 -8
4 -13 9 -9 10 6 24 -11 27 -32 3 -18 -14 -16 -18 2 -2 10 -7 12 -18 5 -13 -9
-13 -11 0 -20 8 -5 11 -10 5 -11 -5 0 -18 -2 -27 -4 -13 -2 -18 3 -18 21 0 14
4 23 9 19 5 -3 12 -1 16 5 3 5 -1 10 -9 10 -21 0 -22 87 -1 137 8 19 15 58 15
86 0 43 18 132 26 125 1 -2 7 -43 13 -93z m-1629 45 c0 -5 -2 -10 -4 -10 -3 0
-8 5 -11 10 -3 6 -1 10 4 10 6 0 11 -4 11 -10z m-500 -10 c0 -5 -2 -10 -4 -10
-2 0 -12 -3 -20 -6 -12 -5 -15 -2 -10 10 7 17 34 22 34 6z m-361 -16 c6 4 11
3 11 -2 0 -6 -6 -12 -14 -15 -8 -3 -19 -22 -26 -41 -6 -20 -16 -34 -20 -31 -5
3 -4 17 2 31 10 20 9 27 -3 34 -12 8 -11 12 6 24 13 9 22 11 26 4 4 -6 12 -7
18 -4z m51 6 c0 -5 -7 -10 -16 -10 -8 0 -12 5 -9 10 3 6 10 10 16 10 5 0 9 -4
9 -10z m-10 -38 c0 -4 -9 -8 -20 -9 -11 -1 -20 2 -20 8 0 5 9 9 20 9 11 0 20
-4 20 -8z m290 -16 c0 -3 -4 -8 -10 -11 -5 -3 -10 -1 -10 4 0 6 5 11 10 11 6
0 10 -2 10 -4z m-320 -16 c0 -5 7 -10 15 -10 8 0 15 -5 15 -11 0 -18 -45 -5
-48 14 -2 9 1 17 7 17 6 0 11 -4 11 -10z m3310 -94 c25 -23 76 -57 114 -76 54
-27 81 -50 124 -102 53 -64 58 -67 91 -62 53 7 65 -5 57 -60 -4 -25 -12 -48
-17 -52 -6 -3 1 -24 16 -50 16 -27 28 -65 30 -97 2 -28 2 -44 -1 -35 -5 15 -9
14 -30 -10 -14 -15 -23 -21 -19 -14 3 7 -1 15 -10 18 -13 6 -14 9 -3 16 12 9
3 7 -53 -8 -9 -2 -22 4 -30 13 -13 16 -12 17 4 4 15 -12 17 -11 16 10 -1 37
-14 65 -23 50 -4 -6 -5 -18 -2 -26 3 -8 1 -15 -4 -15 -6 0 -10 6 -10 13 0 7
-7 3 -15 -7 -8 -11 -13 -29 -9 -40 4 -16 3 -17 -4 -7 -12 17 -19 11 -70 -59
-32 -44 -32 -45 -11 -54 22 -10 83 6 164 44 22 10 49 22 60 26 28 10 134 13
140 5 11 -19 -14 -62 -50 -87 -30 -20 -59 -29 -120 -36 -55 -6 -88 -15 -105
-28 -14 -11 -40 -28 -58 -37 -32 -17 -35 -17 -64 0 -35 20 -58 9 -58 -26 0
-11 -8 -29 -17 -40 -17 -19 -17 -19 2 -14 126 38 156 50 180 72 31 30 68 30
74 0 2 -12 -7 -29 -26 -45 -17 -14 -35 -35 -42 -47 -18 -35 12 -36 130 -8 145
36 169 44 169 61 0 19 30 30 108 38 68 8 80 -1 68 -47 -5 -21 -67 -57 -122
-72 -11 -3 -34 -19 -50 -37 -16 -17 -22 -29 -14 -26 53 18 90 28 121 33 20 3
75 26 124 50 48 25 94 45 101 45 26 0 14 -37 -24 -81 -35 -39 -43 -43 -80 -41
-53 3 -122 -15 -122 -32 0 -26 -35 -46 -81 -44 -33 1 -53 -5 -83 -25 -21 -15
-47 -27 -56 -27 -37 0 -190 -72 -214 -101 -18 -21 -34 -29 -56 -29 -20 0 -44
-10 -61 -25 -35 -29 -101 -45 -107 -25 -3 7 -15 21 -28 33 -31 26 -19 49 38
72 24 9 52 25 63 35 11 10 70 33 130 51 75 22 120 41 143 60 18 16 37 29 41
29 5 0 24 14 42 31 32 30 32 31 9 25 -56 -17 -126 -56 -135 -78 -16 -36 -53
-49 -115 -42 -30 3 -59 9 -63 14 -11 10 6 43 50 91 19 21 33 39 30 39 -2 0
-24 -9 -49 -20 -24 -10 -54 -17 -65 -14 -38 10 -122 -24 -138 -56 -8 -16 -29
-37 -46 -47 -17 -10 -40 -34 -52 -53 -12 -19 -37 -52 -55 -72 -33 -37 -78 -99
-292 -409 -58 -84 -157 -227 -221 -318 -141 -204 -131 -187 -136 -229 -3 -31
-1 -34 17 -29 11 3 20 1 20 -4 0 -5 -12 -9 -28 -9 -26 0 -27 2 -27 48 1 43 12
64 124 239 67 106 128 196 136 200 18 11 235 394 235 415 0 10 26 48 58 85 61
72 92 113 92 124 0 4 -80 -25 -177 -63 -134 -52 -187 -78 -213 -104 -20 -19
-45 -34 -57 -34 -11 0 -26 -7 -33 -15 -14 -16 -75 -21 -84 -6 -3 5 -15 7 -25
4 -26 -7 -33 9 -20 45 11 32 32 44 111 63 26 6 55 20 64 30 10 11 63 34 118
51 55 17 154 53 220 80 67 27 132 54 146 59 16 6 41 36 68 83 23 40 42 76 42
79 0 7 -53 -7 -185 -50 -124 -41 -174 -64 -225 -105 -21 -17 -46 -28 -66 -28
-31 0 -31 1 -29 48 2 63 10 78 59 106 37 21 50 23 136 19 85 -5 109 -2 219 27
l123 33 33 51 c63 101 101 178 88 183 -19 7 -16 26 12 67 26 38 35 64 11 33
-12 -15 -14 -15 -19 -2 -4 8 -3 14 1 14 4 -1 12 0 17 1 6 1 16 3 24 4 8 0 16
7 19 15 3 8 0 11 -6 8 -15 -10 -30 15 -27 46 2 15 -1 27 -6 27 -5 0 -9 -11 -9
-25 0 -14 -4 -25 -10 -25 -5 0 -10 9 -10 20 0 11 -5 20 -11 20 -5 0 -7 5 -4
10 4 6 11 8 16 5 5 -4 9 -1 9 4 0 6 -4 11 -8 11 -5 0 -14 12 -21 28 -10 25
-10 26 4 8 8 -11 15 -14 15 -8 0 16 -64 55 -68 42 -2 -6 -9 -7 -14 -4 -6 4
-17 -1 -25 -11 -13 -18 -13 -18 -13 1 0 14 -2 16 -9 6 -7 -11 -9 -10 -15 3 -3
9 -10 14 -16 10 -5 -3 -22 1 -37 9 -19 10 -22 15 -11 16 9 0 20 -5 23 -10 5
-8 11 -8 20 0 9 8 14 6 19 -5 3 -9 11 -13 17 -9 8 4 7 9 -2 16 -11 7 -11 9 1
7 34 -3 61 2 55 10 -3 5 -25 8 -49 5 -31 -3 -47 0 -56 11 -8 9 -9 15 -2 15 6
0 14 -4 17 -10 3 -5 13 -10 21 -10 8 0 12 5 9 10 -3 6 -1 10 4 10 6 0 11 5 11
10 0 7 -7 7 -22 -1 -18 -10 -20 -9 -15 5 4 9 2 16 -2 16 -5 0 -11 -4 -13 -9
-1 -5 -11 -4 -21 3 -15 12 -16 16 -3 41 8 15 12 33 10 40 -3 7 2 15 10 18 9 4
16 12 16 19 0 9 -3 8 -10 -2 -7 -11 -10 -1 -10 34 l0 48 38 -32 c20 -18 57
-51 82 -74z m-2263 57 c-3 -10 -5 -4 -5 12 0 17 2 24 5 18 2 -7 2 -21 0 -30z
m-792 18 c3 -6 -3 -9 -14 -8 -11 0 -17 5 -15 9 7 11 22 10 29 -1z m-397 -178
c0 -90 -5 -141 -12 -145 -8 -5 -7 -8 2 -8 10 0 12 -9 7 -31 -4 -17 -8 -38 -9
-45 -1 -7 -5 -16 -8 -20 -4 -3 -4 -13 -1 -21 4 -9 -2 -16 -16 -20 -13 -3 -20
-11 -17 -19 6 -15 -3 -18 -21 -6 -13 8 2 35 27 45 11 4 10 6 -4 6 -10 1 -24
-6 -30 -15 -15 -20 -42 -9 -62 25 l-15 26 7 -25 c4 -14 15 -31 25 -38 11 -7
19 -16 19 -20 0 -11 -83 -9 -100 2 -13 9 -13 8 -1 -7 9 -12 24 -16 47 -13 19
2 34 -1 34 -5 0 -5 -7 -9 -16 -9 -11 0 -15 -6 -12 -18 5 -18 -13 -42 -31 -42
-6 0 -16 9 -23 20 -15 23 -25 25 -31 8 -2 -7 -2 -3 0 10 2 12 -2 22 -8 22 -8
0 -8 5 1 15 11 13 10 14 -4 9 -12 -5 -15 -2 -10 12 5 17 4 17 -11 -1 -9 -12
-11 -21 -5 -23 14 -5 13 -42 -2 -42 -10 0 -10 -2 -1 -8 15 -9 11 -41 -6 -51
-7 -5 -12 -11 -12 -15 3 -24 0 -28 -13 -16 -8 6 -13 19 -10 28 2 9 -2 4 -10
-13 -8 -16 -15 -23 -16 -15 0 9 -9 16 -20 16 -11 0 -18 -5 -16 -11 2 -5 8 -9
14 -8 5 1 12 -9 15 -22 4 -26 -8 -35 -16 -12 -3 9 -9 9 -26 -1 -12 -7 -26 -10
-31 -7 -20 12 -29 -6 -12 -23 13 -14 20 -15 30 -6 6 7 12 17 12 23 0 6 5 11
10 11 6 0 4 -13 -5 -30 -9 -16 -18 -30 -21 -30 -5 0 -40 22 -72 46 -2 1 2 38
8 81 12 73 47 153 69 153 14 0 120 110 301 313 52 58 98 106 102 107 4 0 6
-62 6 -137z m3192 86 c0 -4 -7 -6 -15 -3 -8 4 -15 10 -15 15 0 4 7 6 15 3 8
-4 15 -10 15 -15z m90 1 c-6 -11 -13 -20 -15 -20 -3 0 -5 9 -5 20 0 11 7 20
15 20 13 0 14 -4 5 -20z m-3125 -20 c-3 -5 1 -10 9 -12 10 -2 8 -12 -11 -41
-13 -22 -27 -36 -31 -33 -3 4 0 12 6 18 17 17 15 38 -3 38 -8 0 -15 5 -15 10
0 6 7 10 15 10 8 0 15 7 15 16 0 8 5 12 10 9 6 -4 8 -10 5 -15z m-54 -40 c6 0
5 -8 -1 -20 -15 -28 -30 -16 -30 24 0 41 14 57 18 22 2 -14 8 -26 13 -26z
m3195 24 c-4 -9 -9 -15 -11 -12 -3 3 -3 13 1 22 4 9 9 15 11 12 3 -3 3 -13 -1
-22z m-106 6 c0 -5 -4 -10 -10 -10 -5 0 -10 5 -10 10 0 6 5 10 10 10 6 0 10
-4 10 -10z m-523 -102 c0 -24 -1 -33 -4 -20 -2 12 -8 22 -12 22 -4 0 -7 9 -8
20 -1 11 4 20 11 20 7 0 12 -16 13 -42z m629 19 c8 3 14 1 14 -5 0 -11 -18
-11 -38 1 -7 5 -9 14 -5 20 5 8 9 7 11 -5 2 -10 9 -15 18 -11z m599 -27 c7
-11 -13 -80 -22 -80 -11 0 -32 35 -33 52 0 26 43 48 55 28z m-1265 -36 c0 -8
-4 -14 -10 -14 -5 0 -10 9 -10 21 0 11 5 17 10 14 6 -3 10 -13 10 -21z m624 8
c3 -5 -1 -9 -9 -9 -8 0 -12 4 -9 9 3 4 7 8 9 8 2 0 6 -4 9 -8z m-3144 -68 c0
-40 6 -42 37 -12 19 18 23 19 23 5 0 -19 -37 -47 -62 -47 -15 0 -18 9 -18 51
0 31 4 48 10 44 6 -3 10 -22 10 -41z m173 26 c3 -11 1 -20 -4 -20 -5 0 -9 2
-9 4 0 2 -3 11 -6 20 -3 9 -2 16 4 16 5 0 12 -9 15 -20z m3147 10 c-11 -7 -11
-10 -2 -10 7 0 10 -5 6 -11 -4 -7 -10 -7 -16 -1 -12 12 -2 32 15 32 7 0 6 -4
-3 -10z m-40 -32 c0 -18 -2 -20 -9 -8 -6 8 -7 18 -5 22 9 14 14 9 14 -14z
m-810 -13 c14 -19 14 -19 -2 -6 -10 7 -18 18 -18 24 0 6 1 8 3 6 1 -2 9 -13
17 -24z m860 1 c0 -3 -4 -8 -10 -11 -5 -3 -10 -1 -10 4 0 6 5 11 10 11 6 0 10
-2 10 -4z m-3440 -106 c0 -5 -2 -10 -4 -10 -3 0 -8 5 -11 10 -3 6 -1 10 4 10
6 0 11 -4 11 -10z m598 -123 c9 -72 0 -127 -20 -127 -5 0 -7 -4 -4 -8 7 -11
-31 -67 -46 -67 -6 0 -13 6 -16 14 -3 10 0 12 12 8 9 -4 16 -2 16 4 0 5 -17 8
-37 6 -27 -3 -39 -9 -42 -23 -3 -15 -1 -16 11 -6 15 12 28 7 28 -10 0 -5 -4
-6 -10 -3 -5 3 -10 4 -10 1 0 -2 -3 -12 -7 -22 -4 -12 -3 -15 5 -10 7 4 12 2
12 -3 0 -6 -6 -11 -14 -11 -21 0 -27 66 -11 113 17 51 14 56 -14 21 -11 -15
-21 -24 -21 -20 0 15 35 73 66 112 19 23 34 43 34 46 0 3 10 27 21 54 20 45
23 47 30 26 5 -13 13 -56 17 -95z m-433 74 c-3 -6 -11 -8 -17 -5 -6 4 -5 9 3
15 16 10 23 4 14 -10z m-185 -1 c0 -5 -4 -10 -10 -10 -5 0 -10 5 -10 10 0 6 5
10 10 10 6 0 10 -4 10 -10z m196 -67 c-4 -4 -20 7 -35 25 l-27 33 -18 -20
c-11 -12 -22 -19 -24 -16 -3 3 5 16 18 30 l24 26 35 -35 c19 -20 32 -39 27
-43z m-246 41 c0 -17 -22 -14 -28 4 -2 7 3 12 12 12 9 0 16 -7 16 -16z m47
-26 c-3 -8 -6 -5 -6 6 -1 11 2 17 5 13 3 -3 4 -12 1 -19z m-87 -7 c0 -11 -19
-36 -23 -31 -3 3 -8 15 -11 27 -6 18 -4 20 14 16 11 -3 20 -8 20 -12z m70 -6
c0 -2 -9 -3 -19 -2 -11 0 -18 5 -15 9 4 6 34 0 34 -7z m-183 -49 c-2 -19 -5
-37 -8 -41 -7 -7 -10 56 -3 67 10 15 13 8 11 -26z m36 -1 c-3 -9 -8 -14 -10
-11 -3 3 -2 9 2 15 9 16 15 13 8 -4z m75 -10 c-3 -3 -9 2 -12 12 -6 14 -5 15
5 6 7 -7 10 -15 7 -18z m3892 1 c0 -2 -7 -7 -16 -10 -8 -3 -12 -2 -9 4 6 10
25 14 25 6z m-3640 -89 c1 -29 2 -30 14 -14 7 9 16 17 20 17 12 0 5 -21 -14
-40 -31 -31 -40 -24 -40 31 0 31 4 48 10 44 6 -3 10 -21 10 -38z m-430 23 c0
-5 -4 -10 -10 -10 -5 0 -10 5 -10 10 0 6 5 10 10 10 6 0 10 -4 10 -10z m4290
1 c0 -12 -20 -25 -27 -18 -7 7 6 27 18 27 5 0 9 -4 9 -9z m-3900 -28 c0 -28
-15 -62 -23 -53 -2 3 -2 22 1 43 5 43 22 50 22 10z m-440 -3 c0 -5 -4 -10 -10
-10 -5 0 -10 5 -10 10 0 6 5 10 10 10 6 0 10 -4 10 -10z m860 -85 c0 -8 -4
-15 -10 -15 -5 0 -7 7 -4 15 4 8 8 15 10 15 2 0 4 -7 4 -15z m3274 -50 c-6
-16 -34 -21 -34 -7 0 13 11 22 26 22 8 0 11 -6 8 -15z m624 -52 c-37 -37 -70
-64 -73 -61 -3 3 2 23 12 44 13 28 31 46 63 62 24 12 49 22 55 22 5 0 -20 -30
-57 -67z m-3934 45 c-3 -4 -9 -8 -15 -8 -5 0 -9 4 -9 8 0 5 7 9 15 9 8 0 12
-4 9 -9z m3766 3 c0 -13 -50 -44 -58 -36 -4 4 4 15 17 26 25 20 41 24 41 10z
m-4080 -10 c0 -18 -12 -41 -22 -41 -6 0 -8 7 -4 15 4 12 -3 15 -35 15 -24 0
-38 4 -34 10 8 13 95 13 95 1z m1742 -33 c-9 -9 -12 -9 -12 0 0 7 -4 12 -10
12 -5 0 -7 -7 -4 -15 4 -8 2 -15 -3 -15 -16 0 -12 39 5 43 24 5 39 -10 24 -25z
m-1788 -10 c-8 -26 -23 -48 -34 -48 -10 0 23 69 33 70 5 0 5 -10 1 -22z m1516
-49 c0 -5 4 -8 9 -4 16 9 25 -16 10 -27 -11 -8 -10 -9 3 -5 24 8 29 -17 6 -32
-11 -7 -17 -15 -14 -18 3 -3 12 0 21 7 11 10 15 10 15 0 0 -6 -9 -14 -20 -17
-21 -5 -29 -25 -9 -20 6 1 13 -6 14 -16 4 -21 -27 -39 -51 -30 -12 4 -15 3
-10 -6 5 -7 -2 -20 -16 -32 l-23 -21 -7 59 c-5 43 -3 71 10 108 9 28 20 51 23
53 3 1 4 14 1 29 l-5 26 22 -22 c11 -11 21 -26 21 -32z m1180 -23 c0 -3 -4 -8
-10 -11 -5 -3 -10 -1 -10 4 0 6 5 11 10 11 6 0 10 -2 10 -4z m-30 -36 c0 -5 7
-10 15 -10 8 0 15 -7 15 -15 0 -17 -39 -35 -76 -35 -22 0 -24 3 -18 22 11 35
64 66 64 38z m-890 -45 c-14 -8 -29 -14 -35 -14 -5 0 1 6 15 14 14 8 30 14 35
14 6 0 -1 -6 -15 -14z m-1793 -27 c-3 -8 -6 -5 -6 6 -1 11 2 17 5 13 3 -3 4
-12 1 -19z m33 5 c1 -16 2 -16 15 1 11 15 15 16 15 5 0 -19 -36 -59 -53 -59
-7 0 -4 7 6 14 15 12 16 18 7 35 -7 14 -7 21 0 21 5 0 10 -8 10 -17z m1695
-13 c-3 -5 -11 -10 -16 -10 -6 0 -7 5 -4 10 3 6 11 10 16 10 6 0 7 -4 4 -10z
m-618 -40 c1 -11 0 -20 -2 -20 -2 0 -9 9 -15 20 -8 15 -8 20 3 20 7 0 13 -9
14 -20z m593 -5 c0 -7 -57 -35 -72 -35 -7 0 5 9 27 19 48 23 45 22 45 16z
m-125 -47 c-14 -24 -28 -43 -32 -44 -4 0 -16 -4 -25 -8 -19 -9 -48 -2 -48 12
0 8 108 82 121 82 4 0 -3 -19 -16 -42z m290 -6 c-12 -13 -24 22 -12 37 10 12
13 11 15 -8 2 -13 1 -26 -3 -29z m-885 19 c0 -5 -7 -11 -14 -14 -10 -4 -13 -1
-9 9 6 15 23 19 23 5z m677 -35 c1 -1 -2 -7 -6 -14 -9 -15 -45 -3 -49 16 -1 9
6 11 25 6 16 -4 29 -7 30 -8z m-707 -11 c0 -8 -4 -15 -10 -15 -5 0 -7 7 -4 15
4 8 8 15 10 15 2 0 4 -7 4 -15z m-880 -10 c0 -11 -32 -70 -48 -87 -8 -10 -22
-18 -30 -18 -10 0 -6 8 12 25 34 32 33 45 -4 45 -16 0 -30 5 -30 10 0 6 21 10
46 10 27 0 43 4 39 10 -3 6 -1 10 4 10 6 0 11 -2 11 -5z m1535 -7 c29 -13 33
-33 8 -46 -13 -8 -21 -4 -36 14 -10 13 -15 28 -12 34 8 13 9 12 40 -2z m-27
-106 c31 -5 28 -17 -8 -32 -26 -11 -33 -10 -50 5 -22 20 -26 14 -10 -16 12
-22 7 -24 -21 -8 -16 8 -26 7 -45 -6 l-25 -16 26 46 c16 30 23 54 19 67 -7 23
9 38 44 38 12 0 22 6 23 13 0 6 6 -10 12 -38 10 -40 17 -51 35 -53z m299 76
c2 -18 0 -20 -7 -8 -12 18 -13 30 -2 30 4 0 9 -10 9 -22z m-842 2 c3 -5 1 -10
-4 -10 -6 0 -11 5 -11 10 0 6 2 10 4 10 3 0 8 -4 11 -10z m-35 -16 c0 -10 6
-14 15 -10 8 3 15 1 15 -4 0 -11 -11 -13 -34 -4 -17 7 -22 34 -6 34 6 0 10 -7
10 -16z m75 -16 c6 -4 2 -8 -7 -8 -10 0 -18 7 -18 17 0 9 3 12 8 7 4 -5 12
-12 17 -16z m42 6 c-3 -3 -12 -4 -19 -1 -8 3 -5 6 6 6 11 1 17 -2 13 -5z m942
-48 c22 -35 28 -100 11 -111 -5 -3 -7 -18 -4 -33 3 -15 1 -45 -4 -67 l-9 -40
-7 43 c-6 30 -4 47 6 59 11 14 11 16 -4 10 -13 -4 -18 1 -23 24 -6 27 2 149
10 149 2 0 13 -15 24 -34z m1194 10 c7 -17 -1 -26 -24 -26 -24 0 -35 20 -18
31 20 13 36 11 42 -5z m-2012 -9 c-1 -4 -1 -20 -1 -37 0 -16 -4 -30 -10 -30
-5 0 -10 18 -10 41 0 25 4 39 11 37 6 -2 10 -7 10 -11z m79 -7 c0 -5 -4 -10
-10 -10 -5 0 -10 5 -10 10 0 6 5 10 10 10 6 0 10 -4 10 -10z m-44 -26 c-4 -12
-1 -14 14 -9 27 9 25 -5 -6 -34 -19 -19 -28 -21 -37 -12 -9 10 -8 14 5 22 10
5 14 17 11 29 -3 12 0 20 7 20 7 0 10 -7 6 -16z m134 -5 c0 -6 -4 -7 -10 -4
-5 3 -10 11 -10 16 0 6 5 7 10 4 6 -3 10 -11 10 -16z m-49 -10 c11 -5 17 -14
14 -20 -9 -14 -19 -11 -33 11 -14 23 -10 25 19 9z m-143 -35 c39 -19 49 -34
31 -45 -9 -6 -19 -2 -29 10 -8 10 -23 21 -32 24 -18 6 -25 27 -10 27 5 0 23
-7 40 -16z m-1197 -14 c13 0 18 -4 13 -12 -5 -8 -2 -9 9 -5 10 3 17 2 17 -2 0
-5 -6 -11 -12 -14 -10 -3 -10 -9 -1 -24 10 -17 8 -22 -12 -33 -13 -7 -28 -9
-34 -6 -18 11 -13 34 8 41 12 4 18 12 14 21 -8 21 -22 17 -33 -11 -5 -14 -14
-25 -20 -25 -7 0 -7 7 1 22 9 16 9 23 0 26 -16 5 -14 22 4 22 8 0 15 6 16 13
0 10 2 10 6 0 2 -7 14 -13 24 -13z m1255 -51 c-13 -32 -14 -32 -15 -8 -1 14 4
30 11 37 19 19 20 7 4 -29z m-36 -9 c0 -5 -2 -10 -4 -10 -3 0 -8 5 -11 10 -3
6 -1 10 4 10 6 0 11 -4 11 -10z m1519 -129 c-17 -33 -40 -68 -52 -78 -20 -18
-20 -18 -7 7 18 35 82 130 87 130 2 0 -10 -27 -28 -59z m-2719 3 c0 -8 4 -13
9 -9 5 3 12 1 16 -5 3 -5 -1 -10 -9 -10 -9 0 -16 -4 -16 -10 0 -5 7 -10 15
-10 8 0 15 -4 15 -10 0 -5 -6 -10 -14 -10 -8 0 -17 -10 -19 -22 l-4 -23 -8 23
c-8 25 -35 30 -35 7 0 -29 -18 -15 -23 18 -6 42 9 70 34 64 10 -3 19 -1 19 4
0 5 5 9 10 9 6 0 10 -7 10 -16z m2145 -73 c-8 -36 -12 -37 -45 -11 l-25 20 24
0 c16 0 21 4 18 14 -7 16 13 28 27 16 4 -5 5 -22 1 -39z m1228 24 c23 -32 17
-32 -13 0 -13 14 -19 25 -14 25 5 0 17 -12 27 -25z m-1543 -75 c-8 -5 -9 -10
-2 -14 6 -3 12 0 14 6 3 8 9 5 16 -8 9 -18 8 -26 -8 -47 -18 -22 -77 -46 -64
-26 3 5 0 9 -5 9 -6 0 -11 -4 -11 -10 0 -5 -4 -10 -10 -10 -19 0 -10 21 13 30
12 5 18 9 12 10 -5 0 -4 4 4 9 8 5 16 22 18 38 13 107 13 106 25 59 8 -29 7
-40 -2 -46z m1521 53 c13 -16 12 -17 -3 -4 -10 7 -18 15 -18 17 0 8 8 3 21
-13z m56 -37 c-3 -8 1 -20 9 -26 8 -7 14 -18 14 -24 -1 -6 -12 2 -25 19 -18
21 -21 31 -12 37 17 11 20 10 14 -6z m-2317 -5 c0 -5 -7 -12 -16 -15 -14 -5
-15 -4 -4 9 14 17 20 19 20 6z m-61 -31 c-1 -11 -98 -67 -101 -59 -4 12 -113
-44 -203 -104 -38 -25 -111 -82 -162 -126 -50 -45 -94 -81 -98 -81 -3 0 21 27
53 60 33 33 57 60 54 60 -3 0 -27 -14 -54 -31 -61 -39 -74 -33 -16 7 24 16 49
34 56 41 7 6 56 34 110 61 111 57 211 113 252 142 15 11 38 20 50 20 11 0 19
3 17 8 -3 4 6 7 19 7 13 0 24 -2 23 -5z m384 -65 c-3 -9 -8 -14 -10 -11 -3 3
-2 9 2 15 9 16 15 13 8 -4z m2072 5 c3 -5 1 -10 -4 -10 -6 0 -11 5 -11 10 0 6
2 10 4 10 3 0 8 -4 11 -10z m-2038 -25 c-4 -8 -11 -15 -17 -15 -6 0 -6 7 2 20
14 22 24 19 15 -5z m-527 12 c0 -2 -12 -14 -27 -28 l-28 -24 24 28 c23 25 31
32 31 24z m1269 -12 c7 4 8 -1 4 -12 -3 -10 -3 -15 2 -11 4 4 14 3 22 -3 10
-9 13 -8 13 5 0 10 5 14 10 11 6 -3 16 -3 23 2 20 13 57 15 57 3 0 -6 -4 -9
-9 -6 -5 3 -11 -4 -14 -15 -4 -13 -10 -18 -18 -13 -7 4 -10 3 -5 -4 10 -16
-39 -49 -94 -62 -52 -13 -100 -7 -100 11 0 6 5 7 10 4 6 -3 10 -1 10 4 0 6 -4
11 -10 11 -5 0 -10 5 -10 10 0 6 11 8 28 3 34 -8 62 -7 74 5 6 6 -1 11 -16 14
-14 3 -23 1 -20 -3 8 -13 -10 -11 -24 3 -19 19 -14 31 12 24 14 -3 28 -2 31 4
3 5 1 10 -4 10 -6 0 -11 5 -11 11 0 8 4 8 15 -1 8 -6 19 -9 24 -5z m1291 -16
c0 -5 -5 -9 -12 -9 -6 0 -8 3 -5 7 4 3 1 13 -6 22 -11 14 -10 14 6 2 9 -7 17
-17 17 -22z m-2010 6 c0 -8 -4 -15 -10 -15 -5 0 -7 7 -4 15 4 8 8 15 10 15 2
0 4 -7 4 -15z m-60 -5 c0 -5 -4 -10 -10 -10 -5 0 -10 5 -10 10 0 6 5 10 10 10
6 0 10 -4 10 -10z m370 0 c0 -5 -5 -10 -11 -10 -5 0 -7 5 -4 10 3 6 8 10 11
10 2 0 4 -4 4 -10z m-263 -6 c-3 -3 -12 -4 -19 -1 -8 3 -5 6 6 6 11 1 17 -2
13 -5z m170 -10 c-3 -3 -12 -4 -19 -1 -8 3 -5 6 6 6 11 1 17 -2 13 -5z m-285
-76 c-26 -35 -27 -36 -30 -13 -4 28 14 51 39 51 15 0 13 -6 -9 -38z m113 2 c4
-6 3 -10 -2 -9 -15 2 -53 -13 -53 -21 0 -5 -15 -19 -32 -31 l-33 -23 34 39
c19 22 44 43 55 47 12 3 22 6 23 7 1 1 5 -4 8 -9z m-174 -32 c0 -7 2 -24 5
-38 2 -14 8 -54 14 -90 6 -36 15 -90 20 -120 6 -30 24 -138 41 -239 17 -101
37 -204 45 -230 7 -25 14 -60 14 -77 0 -17 7 -51 16 -75 9 -25 17 -88 19 -144
2 -55 9 -167 15 -250 13 -172 17 -332 8 -340 -3 -4 -30 19 -60 49 -39 40 -62
56 -81 56 -14 0 -29 -5 -32 -10 -19 -31 -23 35 -20 372 4 485 4 475 13 461 4
-7 7 -84 6 -173 -1 -101 1 -158 8 -154 5 3 8 16 7 27 0 12 -1 85 0 162 l2 140
19 -35 c11 -19 19 -28 20 -20 0 8 -9 32 -20 53 -11 20 -20 49 -20 64 0 14 -7
34 -16 44 -12 13 -15 43 -15 148 0 72 -4 129 -9 126 -5 -3 -12 -50 -15 -105
-4 -55 -10 -100 -12 -100 -3 0 -23 10 -44 22 -42 24 -57 65 -19 55 13 -3 20 0
20 9 0 8 -9 19 -20 26 -16 10 -20 24 -21 73 -1 33 -4 51 -7 40 l-5 -20 -8 20
c-5 14 -8 4 -8 -32 -1 -29 -5 -53 -11 -53 -5 0 -10 25 -10 55 0 30 -4 55 -10
55 -5 0 -10 18 -10 40 0 22 5 40 10 40 6 0 10 23 10 50 0 28 5 50 10 50 6 0
10 -22 10 -49 0 -28 5 -53 10 -56 6 -4 8 -15 5 -25 -3 -10 -1 -21 5 -25 6 -4
10 7 10 29 0 19 -5 38 -10 41 -6 4 -10 27 -9 51 3 42 5 46 43 63 23 10 47 25
55 34 16 20 31 22 32 5z m705 -65 c-3 -38 -7 -88 -10 -113 -4 -34 -3 -41 5
-27 6 10 8 25 5 33 -3 8 -2 13 3 9 5 -3 11 1 14 7 2 7 7 11 10 8 11 -11 -37
-99 -52 -94 -10 3 -12 -2 -7 -21 5 -19 3 -23 -8 -19 -9 4 -23 -7 -38 -30 -13
-20 -26 -36 -30 -36 -3 0 -11 12 -16 28 -10 26 -10 25 -11 -15 -1 -25 -6 -43
-12 -43 -12 0 -4 67 11 85 4 6 10 53 13 105 4 60 3 89 -3 80 -7 -11 -10 -8
-10 13 0 27 22 38 35 17 13 -21 28 -11 75 48 14 18 26 32 28 32 2 0 1 -30 -2
-67z m-533 32 c-3 -9 -8 -14 -10 -11 -3 3 -2 9 2 15 9 16 15 13 8 -4z m-59
-55 c-21 -22 -43 -40 -47 -40 -4 0 11 20 34 45 23 25 44 43 47 40 3 -2 -13
-23 -34 -45z m625 13 c0 -5 -4 -17 -9 -28 -8 -18 -9 -17 -9 8 -1 15 4 27 9 27
6 0 10 -3 9 -7z m-579 -27 c0 -3 -4 -8 -10 -11 -5 -3 -10 -1 -10 4 0 6 5 11
10 11 6 0 10 -2 10 -4z m-1046 -71 c-4 -8 -8 -15 -10 -15 -2 0 -4 7 -4 15 0 8
4 15 10 15 5 0 7 -7 4 -15z m-874 -13 c0 -10 7 -19 15 -19 8 0 15 9 15 19 0
10 5 18 10 18 6 0 10 -18 10 -40 0 -43 -14 -54 -23 -19 -6 23 -27 17 -27 -7 0
-8 -6 -14 -13 -14 -9 0 -11 12 -9 40 4 39 22 57 22 22z m432 -39 c-5 -27 -22
-31 -22 -5 0 9 -3 28 -7 41 -6 24 -6 24 13 5 12 -11 18 -28 16 -41z m378 17
c0 -22 -4 -40 -10 -40 -5 0 -10 18 -10 40 0 22 5 40 10 40 6 0 10 -18 10 -40z
m400 6 c0 -24 5 -36 18 -39 10 -3 6 -5 -10 -6 -26 -1 -28 2 -28 39 0 22 5 40
10 40 6 0 10 -15 10 -34z m810 -6 c0 -22 -3 -40 -7 -40 -5 0 -8 18 -8 40 0 22
3 40 7 40 5 0 8 -18 8 -40z m30 30 c0 -5 -2 -10 -4 -10 -3 0 -8 5 -11 10 -3 6
-1 10 4 10 6 0 11 -4 11 -10z m1205 -15 c14 -14 25 -34 25 -43 -1 -12 -7 -9
-23 13 l-22 29 -6 -29 c-6 -27 -7 -25 -8 13 0 23 1 42 4 42 2 0 16 -11 30 -25z
m35 15 c0 -5 -4 -10 -10 -10 -5 0 -10 5 -10 10 0 6 5 10 10 10 6 0 10 -4 10
-10z m380 -30 c0 -22 -4 -40 -10 -40 -5 0 -10 18 -10 40 0 22 5 40 10 40 6 0
10 -18 10 -40z m386 23 c13 -17 13 -17 14 0 0 9 5 17 10 17 7 0 7 -6 0 -19 -5
-11 -10 -29 -10 -40 0 -28 -25 -27 -26 2 0 12 -4 30 -8 40 -5 9 -5 17 -1 17 4
0 14 -8 21 -17z m-3213 -18 c-8 -22 -22 -18 -16 5 3 11 9 17 14 15 4 -3 6 -12
2 -20z m1967 -18 c0 -7 -13 -26 -30 -42 -35 -34 -38 -26 -9 21 21 35 39 44 39
21z m-1173 -109 c-3 -7 -5 -2 -5 12 0 14 2 19 5 13 2 -7 2 -19 0 -25z m809
-112 c3 -7 -2 -30 -10 -51 -19 -46 -19 -46 -1 -39 30 12 15 -22 -29 -65 l-44
-43 -7 92 c-7 82 -5 93 11 105 24 18 73 19 80 1z m-123 -225 c-4 -11 -9 1 -13
34 l-7 50 -1 -54 c-2 -38 -7 -58 -19 -67 -10 -7 -20 -14 -23 -14 -8 0 -4 160
4 198 8 35 23 42 33 15 5 -14 8 -12 17 8 9 20 11 8 14 -65 2 -49 0 -97 -5
-105z m-536 47 c-3 -7 -5 -2 -5 12 0 14 2 19 5 13 2 -7 2 -19 0 -25z m-165
-30 l1 -53 7 50 7 50 3 -65 3 -65 6 63 6 62 42 -37 42 -38 4 -122 c5 -132 3
-138 -45 -112 -11 6 -22 8 -25 6 -3 -3 13 -15 35 -26 l40 -20 0 -168 c0 -92
-3 -212 -6 -266 l-7 -99 -41 30 -41 30 5 158 c2 98 0 172 -7 194 -9 30 -10 23
-8 -52 1 -63 -2 -89 -10 -93 -7 -2 -13 -10 -13 -17 0 -9 3 -9 10 2 7 10 9 -12
7 -72 -2 -84 -8 -106 -21 -73 -3 8 -8 188 -12 400 -5 286 -4 385 5 385 6 0 12
-21 13 -52z m872 -13 c-1 -56 -4 -68 -22 -81 -12 -8 -22 -24 -22 -34 0 -11 -9
-24 -20 -30 -11 -6 -20 -15 -20 -21 0 -6 6 -7 13 -3 6 4 -3 -9 -20 -27 -35
-37 -46 -63 -15 -37 9 9 36 25 60 37 l42 21 0 -114 c0 -77 -4 -116 -11 -118
-13 -4 -22 -186 -11 -203 4 -5 10 35 13 90 4 82 5 72 5 -59 -1 -118 -4 -160
-13 -163 -9 -3 -11 4 -7 26 4 17 2 31 -2 31 -5 0 -11 57 -12 127 -2 71 -5 130
-8 132 -2 2 -4 -68 -4 -157 l0 -162 -45 0 -45 0 0 293 c0 160 3 322 7 360 6
66 7 67 51 97 25 17 48 30 52 30 3 0 7 -12 8 -27 4 -46 12 -39 12 10 0 26 3
47 8 47 4 0 7 -29 6 -65z m-209 -802 c-27 -35 -55 -63 -61 -63 -7 0 -27 -17
-47 -39 l-35 -39 -6 39 c-3 21 -2 59 3 86 17 87 84 529 99 646 9 73 30 117 54
117 4 0 9 -143 10 -317 l3 -318 2 315 c2 173 6 322 10 330 4 8 10 -145 13
-340 l5 -355 -50 -62z m-114 694 c-10 -9 -11 -8 -5 6 3 10 9 15 12 12 3 -3 0
-11 -7 -18z"/>
<path d="M4350 8639 c0 -5 5 -7 10 -4 6 3 10 8 10 11 0 2 -4 4 -10 4 -5 0 -10
-5 -10 -11z"/>
<path d="M4323 8612 c1 -14 5 -18 11 -12 7 7 6 14 -1 21 -9 9 -12 7 -10 -9z"/>
<path d="M4268 8613 c7 -3 16 -2 19 1 4 3 -2 6 -13 5 -11 0 -14 -3 -6 -6z"/>
<path d="M4366 8598 c7 -11 34 -10 34 1 0 6 -9 9 -19 8 -11 0 -17 -5 -15 -9z"/>
<path d="M4540 8550 c0 -5 5 -10 11 -10 5 0 7 5 4 10 -3 6 -8 10 -11 10 -2 0
-4 -4 -4 -10z"/>
<path d="M5020 8515 c0 -8 4 -15 10 -15 5 0 7 7 4 15 -4 8 -8 15 -10 15 -2 0
-4 -7 -4 -15z"/>
<path d="M5060 8520 c0 -5 5 -10 10 -10 6 0 10 5 10 10 0 6 -4 10 -10 10 -5 0
-10 -4 -10 -10z"/>
<path d="M3904 8365 c3 -21 16 -31 16 -12 0 9 -4 18 -9 21 -5 4 -8 -1 -7 -9z"/>
<path d="M4977 8319 c7 -7 15 -10 18 -7 3 3 -2 9 -12 12 -14 6 -15 5 -6 -5z"/>
<path d="M4964 8293 c2 -9 8 -19 15 -21 10 -3 10 0 2 17 -14 25 -20 27 -17 4z"/>
<path d="M4920 8290 c-8 -5 -10 -10 -5 -10 6 0 17 5 25 10 8 5 11 10 5 10 -5
0 -17 -5 -25 -10z"/>
<path d="M4840 8279 c0 -5 5 -7 10 -4 6 3 10 8 10 11 0 2 -4 4 -10 4 -5 0 -10
-5 -10 -11z"/>
<path d="M4876 8254 c-4 -9 -4 -19 -1 -22 2 -3 7 2 11 11 3 9 13 14 22 10 15
-4 15 -3 2 6 -21 15 -27 14 -34 -5z"/>
<path d="M4841 8236 c-8 -10 -9 -16 -1 -21 5 -3 13 1 16 10 9 22 -1 29 -15 11z"/>
<path d="M4780 8220 c0 -5 5 -10 11 -10 5 0 7 5 4 10 -3 6 -8 10 -11 10 -2 0
-4 -4 -4 -10z"/>
<path d="M2810 8349 c7 -11 14 -19 16 -16 7 7 -7 37 -17 37 -6 0 -5 -9 1 -21z"/>
<path d="M2846 8345 c-3 -8 -1 -15 4 -15 6 0 10 7 10 15 0 8 -2 15 -4 15 -2 0
-6 -7 -10 -15z"/>
<path d="M2240 8409 c0 -5 -4 -8 -9 -4 -5 3 -12 1 -15 -4 -3 -5 4 -11 17 -13
17 -3 23 0 23 14 0 10 -4 18 -8 18 -4 0 -8 -5 -8 -11z"/>
<path d="M2188 8373 c7 -3 16 -2 19 1 4 3 -2 6 -13 5 -11 0 -14 -3 -6 -6z"/>
<path d="M2211 8344 c0 -11 3 -14 6 -6 3 7 2 16 -1 19 -3 4 -6 -2 -5 -13z"/>
<path d="M2140 8310 c-8 -5 -11 -13 -6 -17 5 -4 11 -2 13 5 3 6 9 10 14 6 5
-3 9 0 9 5 0 13 -10 14 -30 1z"/>
<path d="M1785 7831 c-3 -6 4 -9 15 -8 11 1 20 5 20 9 0 11 -28 10 -35 -1z"/>
<path d="M1746 7815 c-11 -8 -15 -15 -9 -15 6 0 16 7 23 15 16 19 11 19 -14 0z"/>
<path d="M1840 7815 c0 -8 5 -15 10 -15 6 0 10 7 10 15 0 8 -4 15 -10 15 -5 0
-10 -7 -10 -15z"/>
<path d="M1620 7800 c0 -5 5 -10 11 -10 5 0 7 5 4 10 -3 6 -8 10 -11 10 -2 0
-4 -4 -4 -10z"/>
<path d="M3548 8273 c7 -3 16 -2 19 1 4 3 -2 6 -13 5 -11 0 -14 -3 -6 -6z"/>
<path d="M2572 8189 c11 -6 15 -16 11 -27 -5 -14 -3 -15 7 -5 11 10 11 15 0
28 -7 8 -18 15 -24 15 -6 0 -3 -5 6 -11z"/>
<path d="M2530 8170 c0 -13 18 -22 24 -11 3 5 -1 11 -9 15 -8 3 -15 1 -15 -4z"/>
<path d="M2550 8129 c0 -15 34 -19 47 -6 12 12 9 14 -17 14 -16 0 -30 -4 -30
-8z"/>
<path d="M3252 8185 c-10 -12 -10 -15 0 -15 10 0 10 -2 -1 -9 -9 -6 -10 -11
-2 -15 6 -4 11 -4 12 1 0 4 2 18 5 31 5 26 3 26 -14 7z"/>
<path d="M4785 8120 c3 -5 8 -10 11 -10 2 0 4 5 4 10 0 6 -5 10 -11 10 -5 0
-7 -4 -4 -10z"/>
<path d="M3636 7663 c5 -5 12 -12 16 -18 4 -6 8 -2 8 8 0 9 -7 17 -17 17 -9 0
-12 -3 -7 -7z"/>
<path d="M3693 7656 c-9 -11 -7 -14 11 -12 14 0 22 6 19 14 -6 15 -15 15 -30
-2z"/>
<path d="M3750 7650 c-9 -6 -10 -10 -3 -10 6 0 15 5 18 10 8 12 4 12 -15 0z"/>
<path d="M3705 7613 c2 -10 4 -20 5 -23 0 -3 5 3 11 13 6 9 14 15 19 12 5 -3
11 -1 15 5 4 6 -6 10 -24 10 -22 0 -28 -4 -26 -17z"/>
<path d="M4755 7340 c-3 -5 -1 -10 4 -10 6 0 11 5 11 10 0 6 -2 10 -4 10 -3 0
-8 -4 -11 -10z"/>
<path d="M4761 7254 c0 -11 3 -14 6 -6 3 7 2 16 -1 19 -3 4 -6 -2 -5 -13z"/>
<path d="M4800 6355 c-16 -19 0 -19 26 0 16 12 16 14 3 15 -9 0 -22 -7 -29
-15z"/>
<path d="M4830 6309 c0 -5 5 -7 10 -4 6 3 10 8 10 11 0 2 -4 4 -10 4 -5 0 -10
-5 -10 -11z"/>
<path d="M4798 6286 c-22 -16 -23 -30 -3 -46 17 -14 21 -35 5 -25 -5 3 -10 2
-10 -4 0 -12 20 -25 21 -14 8 56 7 64 -7 59 -19 -7 -18 3 3 26 19 21 15 23 -9
4z"/>
<path d="M4851 6284 c0 -11 3 -14 6 -6 3 7 2 16 -1 19 -3 4 -6 -2 -5 -13z"/>
<path d="M4865 6250 c-3 -5 -1 -10 4 -10 6 0 11 5 11 10 0 6 -2 10 -4 10 -3 0
-8 -4 -11 -10z"/>
<path d="M4855 6209 c-4 -6 -5 -12 -2 -15 2 -3 7 2 10 11 7 17 1 20 -8 4z"/>
<path d="M2646 7025 c4 -8 8 -15 10 -15 2 0 4 7 4 15 0 8 -4 15 -10 15 -5 0
-7 -7 -4 -15z"/>
<path d="M2655 6980 c-3 -5 3 -10 14 -10 12 0 21 5 21 10 0 6 -6 10 -14 10 -8
0 -18 -4 -21 -10z"/>
<path d="M3099 7010 c0 -3 -2 -15 -5 -27 -2 -13 0 -23 5 -23 14 0 20 25 10 41
-5 8 -9 12 -10 9z"/>
<path d="M3131 6974 c0 -11 3 -14 6 -6 3 7 2 16 -1 19 -3 4 -6 -2 -5 -13z"/>
<path d="M4030 6849 c0 -5 5 -7 10 -4 6 3 10 8 10 11 0 2 -4 4 -10 4 -5 0 -10
-5 -10 -11z"/>
<path d="M3976 6841 c-4 -7 -5 -15 -2 -18 9 -9 19 4 14 18 -4 11 -6 11 -12 0z"/>
<path d="M4066 6724 c18 -26 28 -27 18 -1 -3 8 -12 18 -20 21 -11 4 -11 0 2
-20z"/>
<path d="M4125 6690 c-4 -6 -11 -8 -16 -5 -5 4 -9 2 -9 -3 0 -6 7 -12 15 -16
9 -3 15 0 15 8 0 8 6 17 13 19 9 4 9 6 0 6 -6 1 -15 -4 -18 -9z"/>
<path d="M3463 6816 c-6 -8 -9 -17 -6 -20 4 -3 0 -6 -7 -6 -17 0 -4 -13 16
-16 10 -2 14 3 10 11 -3 8 -1 17 4 20 6 4 10 -1 10 -9 0 -9 5 -16 10 -16 13 0
9 32 -5 42 -14 10 -18 9 -32 -6z"/>
<path d="M3386 6756 c10 -8 21 -12 24 -10 5 6 -21 24 -34 24 -6 0 -1 -6 10
-14z"/>
<path d="M3463 6748 c1 -16 3 -16 19 -1 23 20 22 22 -1 20 -12 -1 -19 -8 -18
-19z"/>
<path d="M3325 6750 c-8 -13 5 -13 25 0 13 8 13 10 -2 10 -9 0 -20 -4 -23 -10z"/>
<path d="M3290 6699 c0 -5 5 -7 10 -4 6 3 10 8 10 11 0 2 -4 4 -10 4 -5 0 -10
-5 -10 -11z"/>
<path d="M3350 6661 c0 -6 4 -13 10 -16 6 -3 7 1 4 9 -7 18 -14 21 -14 7z"/>
<path d="M5040 6430 c-13 -8 -12 -10 3 -10 9 0 17 5 17 10 0 12 -1 12 -20 0z"/>
<path d="M2396 6327 c3 -10 9 -15 12 -12 3 3 0 11 -7 18 -10 9 -11 8 -5 -6z"/>
<path d="M2547 6279 c7 -7 15 -10 18 -7 3 3 -2 9 -12 12 -14 6 -15 5 -6 -5z"/>
<path d="M2470 6199 c-11 -20 -11 -20 14 -4 30 20 32 25 11 25 -8 0 -19 -9
-25 -21z"/>
<path d="M3597 5753 c-4 -3 -7 -11 -7 -17 0 -6 5 -5 12 2 6 6 9 14 7 17 -3 3
-9 2 -12 -2z"/>
<path d="M3520 5716 c0 -2 7 -7 16 -10 8 -3 12 -2 9 4 -6 10 -25 14 -25 6z"/>
<path d="M4162 5660 c0 -14 2 -19 5 -12 2 6 2 18 0 25 -3 6 -5 1 -5 -13z"/>
<path d="M4256 5514 c-5 -14 -4 -15 9 -4 17 14 19 20 6 20 -5 0 -12 -7 -15
-16z"/>
<path d="M4405 5490 c-3 -5 -1 -10 4 -10 6 0 11 5 11 10 0 6 -2 10 -4 10 -3 0
-8 -4 -11 -10z"/>
<path d="M4397 5421 c-4 -17 -3 -21 5 -13 5 5 8 16 6 23 -3 8 -7 3 -11 -10z"/>
<path d="M3198 5198 c6 -6 37 -13 69 -15 55 -4 57 -3 33 11 -31 19 -120 22
-102 4z"/>
<path d="M5000 6059 c0 -5 5 -7 10 -4 6 3 10 8 10 11 0 2 -4 4 -10 4 -5 0 -10
-5 -10 -11z"/>
<path d="M2436 5763 c-6 -14 -5 -15 5 -6 7 7 10 15 7 18 -3 3 -9 -2 -12 -12z"/>
<path d="M5140 5609 c0 -5 5 -7 10 -4 6 3 10 8 10 11 0 2 -4 4 -10 4 -5 0 -10
-5 -10 -11z"/>
<path d="M2910 5590 c0 -5 5 -10 10 -10 6 0 10 5 10 10 0 6 -4 10 -10 10 -5 0
-10 -4 -10 -10z"/>
<path d="M2926 5565 c-16 -16 -14 -35 3 -35 9 0 23 41 17 48 -2 1 -11 -4 -20
-13z"/>
<path d="M1956 5782 c-2 -4 -1 -14 5 -22 7 -12 9 -10 9 8 0 23 -5 28 -14 14z"/>
<path d="M5486 5710 c-11 -3 -15 -9 -10 -13 10 -6 42 9 34 16 -3 3 -14 1 -24
-3z"/>
<path d="M5540 5711 c0 -6 4 -13 10 -16 6 -3 7 1 4 9 -7 18 -14 21 -14 7z"/>
<path d="M5320 5444 c0 -22 35 -30 46 -11 4 7 3 9 -1 4 -5 -4 -17 0 -27 10
-17 15 -18 15 -18 -3z"/>
<path d="M5385 5310 c-3 -5 -1 -10 4 -10 6 0 11 5 11 10 0 6 -2 10 -4 10 -3 0
-8 -4 -11 -10z"/>
<path d="M5568 5253 c7 -3 16 -2 19 1 4 3 -2 6 -13 5 -11 0 -14 -3 -6 -6z"/>
<path d="M5551 5183 c-1 -12 4 -25 9 -28 6 -3 10 0 10 7 0 8 5 6 11 -5 5 -9 7
-22 3 -29 -4 -7 -3 -8 4 -4 7 4 12 16 12 27 0 17 -5 21 -27 18 -4 0 -10 8 -14
18 -7 16 -8 15 -8 -4z"/>
<path d="M5755 5020 c-4 -6 -4 -14 -1 -19 4 -5 0 -12 -6 -14 -7 -3 -3 -6 8 -6
13 -1 24 6 27 18 5 21 -18 37 -28 21z"/>
<path d="M5811 5014 c0 -11 3 -14 6 -6 3 7 2 16 -1 19 -3 4 -6 -2 -5 -13z"/>
<path d="M1960 5205 c0 -8 2 -15 4 -15 2 0 6 7 10 15 3 8 1 15 -4 15 -6 0 -10
-7 -10 -15z"/>
<path d="M1931 5190 c0 -8 4 -24 8 -34 6 -15 10 -16 16 -7 4 7 3 16 -2 20 -6
3 -13 13 -16 21 -5 13 -5 13 -6 0z"/>
<path d="M1795 5099 c-4 -6 -5 -12 -2 -15 2 -3 7 2 10 11 7 17 1 20 -8 4z"/>
<path d="M1803 5023 c-18 -7 -16 -23 2 -23 8 0 15 7 15 15 0 8 -1 15 -2 14 -2
0 -9 -3 -15 -6z"/>
<path d="M1600 4979 c0 -5 5 -7 10 -4 6 3 10 8 10 11 0 2 -4 4 -10 4 -5 0 -10
-5 -10 -11z"/>
<path d="M1640 4975 c-11 -13 -10 -14 4 -9 9 3 16 10 16 15 0 13 -6 11 -20 -6z"/>
<path d="M1670 4986 c0 -2 7 -9 15 -16 13 -11 14 -10 9 4 -5 14 -24 23 -24 12z"/>
<path d="M1581 4964 c0 -11 3 -14 6 -6 3 7 2 16 -1 19 -3 4 -6 -2 -5 -13z"/>
<path d="M2561 4901 c-8 -6 -9 -11 -3 -15 6 -3 14 -1 17 5 9 14 2 20 -14 10z"/>
<path d="M2503 4885 c0 -8 4 -12 9 -9 4 3 8 9 8 15 0 5 -4 9 -8 9 -5 0 -9 -7
-9 -15z"/>
<path d="M2535 4850 c3 -5 8 -10 11 -10 2 0 4 5 4 10 0 6 -5 10 -11 10 -5 0
-7 -4 -4 -10z"/>
<path d="M3590 4569 c0 -5 5 -7 10 -4 6 3 10 8 10 11 0 2 -4 4 -10 4 -5 0 -10
-5 -10 -11z"/>
<path d="M3610 4550 c0 -5 5 -10 10 -10 6 0 10 5 10 10 0 6 -4 10 -10 10 -5 0
-10 -4 -10 -10z"/>
<path d="M3635 4460 c-3 -6 1 -7 9 -4 18 7 21 14 7 14 -6 0 -13 -4 -16 -10z"/>
<path d="M2105 3910 c-3 -5 -1 -10 4 -10 6 0 11 5 11 10 0 6 -2 10 -4 10 -3 0
-8 -4 -11 -10z"/>
<path d="M3469 3475 c-7 -27 4 -95 12 -75 4 9 4 33 0 55 -5 28 -8 34 -12 20z"/>
<path d="M3475 3369 c-4 -6 -5 -12 -2 -15 2 -3 7 2 10 11 7 17 1 20 -8 4z"/>
<path d="M3471 3314 c0 -11 3 -14 6 -6 3 7 2 16 -1 19 -3 4 -6 -2 -5 -13z"/>
<path d="M3513 3115 c0 -22 2 -30 4 -17 2 12 2 30 0 40 -3 9 -5 -1 -4 -23z"/>
<path d="M3508 2488 c-3 -18 -2 -53 2 -78 7 -41 8 -37 9 33 1 82 -3 98 -11 45z"/>
<path d="M3513 2305 c0 -33 2 -45 4 -27 2 18 2 45 0 60 -2 15 -4 0 -4 -33z"/>
<path d="M3512 2180 c0 -14 2 -19 5 -12 2 6 2 18 0 25 -3 6 -5 1 -5 -13z"/>
<path d="M4130 3370 c0 -5 5 -10 10 -10 6 0 10 5 10 10 0 6 -4 10 -10 10 -5 0
-10 -4 -10 -10z"/>
<path d="M4103 3338 c-6 -7 -16 -24 -23 -38 -12 -24 -11 -24 19 4 17 17 31 33
31 38 0 12 -16 10 -27 -4z"/>
<path d="M3342 2660 c0 -19 2 -27 5 -17 2 9 2 25 0 35 -3 9 -5 1 -5 -18z"/>
<path d="M3344 2495 c0 -71 1 -99 3 -62 2 37 2 96 0 130 -2 34 -3 4 -3 -68z"/>
<path d="M4191 2604 c0 -11 3 -14 6 -6 3 7 2 16 -1 19 -3 4 -6 -2 -5 -13z"/>
<path d="M4022 2180 c0 -14 2 -19 5 -12 2 6 2 18 0 25 -3 6 -5 1 -5 -13z"/>
</g>
</svg>
